<svg xmlns="http://www.w3.org/2000/svg" width="243.48794555664062" height="280.4621887207031" viewBox="-52.86629867553711 -73.76074981689453 243.48794555664062 280.4621887207031"><title>Neo4j Graph Visualization</title><desc>Created using Neo4j (http://www.neo4j.com/)</desc><g class="layer relationships"><g class="relationship" transform="translate(83.28528572578718 25.714923665136865) rotate(402.50636418321454)"><path class="outline" fill="#A5ABB6" stroke="none" d="M 5.987513214418485,-24.277555179777966 L 6.953439040707552,-24.018736134675446 A 45.86271178901648 45.86271178901648 0 0 1 14.61975205908908,-39.74139878704347 L 13.820984098511246,-40.34303800215028 A 46.86271178901648 46.86271178901648 0 0 0 5.987513214418485,-24.277555179777966 Z M 84.87980864090665,-44.788744968353335 L 84.16225751046998,-44.09223913549256 A 45.86271178901648 45.86271178901648 0 0 1 93.72845628723367,-29.447707147770398 L 90.95005279936782,-28.316126810978147 L 96.83187765439324,-23.15336239888212 L 97.43299427105481,-30.95648093016007 L 94.65459078318897,-29.82490059336782 A 46.86271178901648 46.86271178901648 0 0 0 84.87980864090665,-44.788744968353335"/><text text-anchor="middle" pointer-events="none" font-size="8px" fill="#000000" x="48.35845166664435" y="-55.420833150699906" font-family="sans-serif">CHEAPEST_FLIGHT</text></g><g class="relationship" transform="translate(22.446419791263015 113.21404277694378) rotate(304.8112107336402)"><path class="outline" fill="#A5ABB6" stroke="none" d="M 17.324116139070416,18.03122292025696 L 18.031222920256962,17.324116139070412 A 47.20997440504767 47.20997440504767 0 0 0 18.634904567298456,17.91707315931511 L 17.94058494930463,18.636739935030725 A 48.20997440504767 48.20997440504767 0 0 1 17.324116139070416,18.03122292025696 Z M 81.68146998560104,21.4658112765052 L 81.05363820602801,20.687462218204132 A 47.20997440504767 47.20997440504767 0 0 0 81.70747815134021,20.15031895542746 L 79.78243396916892,17.849405029030276 L 87.39711800996218,16.042034851427335 L 84.27420372756859,23.218204190623705 L 82.3491595453973,20.917290264226523 A 48.20997440504767 48.20997440504767 0 0 1 81.68146998560104,21.4658112765052"/><text text-anchor="middle" pointer-events="none" font-size="8px" fill="#000000" x="49.298242172981844" y="34.6046740740242" font-family="sans-serif">CHEAPEST_FL…</text></g><g class="relationship" transform="translate(83.28528572578718 25.714923665136865) rotate(402.50636418321454)"><path class="outline" fill="#A5ABB6" stroke="none" d="M 12.698856172145504,-21.540405101092272 L 13.549972844582506,-21.015428520757713 A 44.298796155445835 44.298796155445835 0 0 1 15.297000922814867,-23.63467281462172 L 14.485321621815729,-24.21877615507574 A 45.298796155445835 45.298796155445835 0 0 0 12.698856172145504,-21.540405101092272 Z M 84.94675675589627,-28.0373088995768 L 84.20295465089319,-27.36890899787648 A 44.298796155445835 44.298796155445835 0 0 1 86.22281036065809,-24.95380430267141 L 83.85461551740013,-23.112160150190697 L 90.91467919032276,-19.734957027149626 L 89.38040348500203,-27.409329839312363 L 87.01220864174408,-25.56768568683165 A 45.298796155445835 45.298796155445835 0 0 0 84.94675675589627,-28.0373088995768"/><text text-anchor="middle" pointer-events="none" font-size="8px" fill="#000000" x="48.829182631904075" y="-39.49275377692604" font-family="sans-serif">CHEAPEST_FLIGHT</text></g><g class="relationship" transform="translate(83.28528572578718 25.714923665136865) rotate(402.50636418321454)"><path class="outline" fill="#A5ABB6" stroke="none" d="M 18.343228848217933,-16.993409175968942 L 19.008024713831873,-16.246384104727944 A 48.50420072597795 48.50420072597795 0 0 1 19.823872233471448,-16.956287559208725 L 19.175896509359248,-17.717948547418878 A 49.50420072597795 49.50420072597795 0 0 0 18.343228848217933,-16.993409175968942 Z M 80.07722717393312,-20.259938046744935 L 79.49497738644314,-19.446928092951097 A 48.50420072597795 48.50420072597795 0 0 1 80.36714606517666,-18.807481546457947 L 78.56645279687918,-16.40800165416709 L 86.26604802523823,-15.005777235812303 L 82.76807042290663,-22.00678806951242 L 80.96737715460915,-19.607308177221565 A 49.50420072597795 49.50420072597795 0 0 0 80.07722717393312,-20.259938046744935"/><text text-anchor="middle" pointer-events="none" font-size="8px" fill="#000000" x="49.209786680985815" y="-25.974099364362203" font-family="sans-serif">CHEAPEST_F…</text></g><g class="relationship" transform="translate(83.28528572578718 25.714923665136865) rotate(484.8112107336402)"><path class="outline" fill="#A5ABB6" stroke="none" d="M 24.018736134675446,-6.953439040707552 L 24.277555179777966,-5.987513214418485 A 104.84607410240096 104.84607410240096 0 0 1 24.658075806100136,-6.0887079753437945 L 24.402886087413314,-7.055598976168881 A 105.84607410240096 105.84607410240096 0 0 0 24.018736134675446,-6.953439040707552 Z M 75.13952496846916,-7.8666721418769185 L 74.91537108077932,-6.892118380079481 A 104.84607410240096 104.84607410240096 0 0 1 75.29893183370068,-6.8031381827671655 L 74.61549520310268,-3.8820229210979433 L 82.22877354936188,-5.69530525498336 L 76.21018067449802,-10.697958531659461 L 75.52674404390002,-7.7768432699902394 A 105.84607410240096 105.84607410240096 0 0 0 75.13952496846916,-7.8666721418769185"/><text text-anchor="middle" pointer-events="none" font-size="8px" fill="#000000" x="49.72987445690615" y="-7.046598516416751" transform="rotate(180 49.72987445690615 -10.04659851641675)" font-family="sans-serif">CHEAPES…</text></g><g class="relationship" transform="translate(83.28528572578718 25.714923665136865) rotate(402.50636418321454)"><path class="outline" fill="#A5ABB6" stroke="none" d="M 22.446385545045896,-11.018610437035811 L 22.869003806786598,-10.112302649999162 A 67.16324301196295 67.16324301196295 0 0 1 24.905206417044614,-11.020960571157062 L 24.512905372265806,-11.940797453579954 A 68.16324301196295 68.16324301196295 0 0 0 22.446385545045896,-11.018610437035811 Z M 74.66491365884826,-13.258367169877225 L 74.32145146715986,-12.319200665533835 A 67.16324301196295 67.16324301196295 0 0 1 76.40255599858708,-11.518710679976442 L 75.27921212553719,-8.73696688464207 L 83.08051549987559,-9.361198942082424 L 77.90034782932025,-15.227702407088936 L 76.77700395627036,-12.445958611754564 A 68.16324301196295 68.16324301196295 0 0 0 74.66491365884826,-13.258367169877225"/><text text-anchor="middle" pointer-events="none" font-size="8px" fill="#000000" x="49.476413404191035" y="-13.881637249429282" font-family="sans-serif">CHEAPES…</text></g><g class="relationship" transform="translate(83.28528572578718 25.714923665136865) rotate(402.50636418321454)"><path class="outline" fill="#A5ABB6" stroke="none" d="M 24.663575034869986,-4.118017301971641 L 24.808506894177235,-3.1285756633906963 A 182.4644357258382 182.4644357258382 0 0 1 26.755060089737274,-3.4030013198065205 L 26.620796354263675,-4.393946953702084 A 183.4644357258382 183.4644357258382 0 0 0 24.663575034869986,-4.118017301971641 Z M 72.62326933642639,-4.806275538793358 L 72.5067897995041,-3.8130824470541995 A 182.4644357258382 182.4644357258382 0 0 1 74.45794931285923,-3.5735927030399166 L 74.07643059554019,-0.5979510128602632 L 81.46469970949826,-3.17932264432541 L 74.96664093595129,-7.541114956612788 L 74.58512221863225,-4.565473266433135 A 183.4644357258382 183.4644357258382 0 0 0 72.62326933642639,-4.806275538793358"/><text text-anchor="middle" pointer-events="none" font-size="8px" fill="#000000" x="49.61353896776284" y="-2.5477520068367028" font-family="sans-serif">CHEAPE…</text></g><g class="relationship" transform="translate(83.28528572578718 25.714923665136865) rotate(402.50636418321454)"><path class="outline" fill="#A5ABB6" stroke="none" d="M 24.663575034869986,4.118017301971641 L 24.808506894177235,3.1285756633906963 A 182.4644357258382 182.4644357258382 0 0 0 26.755060089737242,3.4030013198065205 L 26.620796354263643,4.393946953702084 A 183.4644357258382 183.4644357258382 0 0 1 24.663575034869986,4.118017301971641 Z M 72.6232693364264,4.806275538793358 L 72.50678979950412,3.8130824470541995 A 182.4644357258382 182.4644357258382 0 0 0 74.45794931285923,3.5735927030399166 L 74.07643059554019,0.5979510128602632 L 81.46469970949826,3.17932264432541 L 74.96664093595129,7.541114956612788 L 74.58512221863225,4.565473266433135 A 183.4644357258382 183.4644357258382 0 0 1 72.6232693364264,4.806275538793358"/><text text-anchor="middle" pointer-events="none" font-size="8px" fill="#000000" x="49.613538967762835" y="8.547752006836703" font-family="sans-serif">CHEAPE…</text></g><g class="relationship" transform="translate(83.28528572578718 25.714923665136865) rotate(402.50636418321454)"><path class="outline" fill="#A5ABB6" stroke="none" d="M 22.446385545045896,11.018610437035811 L 22.869003806786598,10.112302649999162 A 67.16324301196295 67.16324301196295 0 0 0 24.905206417044635,11.020960571157069 L 24.51290537226583,11.940797453579961 A 68.16324301196295 68.16324301196295 0 0 1 22.446385545045896,11.018610437035811 Z M 74.66491365884826,13.258367169877225 L 74.32145146715987,12.31920066553382 A 67.16324301196295 67.16324301196295 0 0 0 76.40255599858708,11.518710679976442 L 75.27921212553719,8.73696688464207 L 83.08051549987559,9.361198942082424 L 77.90034782932025,15.227702407088936 L 76.77700395627036,12.445958611754564 A 68.16324301196295 68.16324301196295 0 0 1 74.66491365884826,13.258367169877225"/><text text-anchor="middle" pointer-events="none" font-size="8px" fill="#000000" x="49.47641340419106" y="19.881637249429282" font-family="sans-serif">CHEAPES…</text></g><g class="relationship" transform="translate(83.28528572578718 25.714923665136865) rotate(402.50636418321454)"><path class="outline" fill="#A5ABB6" stroke="none" d="M 18.343228848217933,16.993409175968942 L 19.008024713831873,16.246384104727944 A 48.50420072597795 48.50420072597795 0 0 0 19.823872233471445,16.956287559208718 L 19.17589650935924,17.717948547418878 A 49.50420072597795 49.50420072597795 0 0 1 18.343228848217933,16.993409175968942 Z M 80.07722717393314,20.25993804674492 L 79.49497738644315,19.446928092951083 A 48.50420072597795 48.50420072597795 0 0 0 80.36714606517666,18.807481546457947 L 78.56645279687918,16.40800165416709 L 86.26604802523823,15.005777235812303 L 82.76807042290663,22.00678806951242 L 80.96737715460915,19.607308177221565 A 49.50420072597795 49.50420072597795 0 0 1 80.07722717393314,20.25993804674492"/><text text-anchor="middle" pointer-events="none" font-size="8px" fill="#000000" x="49.20978668098582" y="31.974099364362203" font-family="sans-serif">CHEAPEST_F…</text></g><g class="relationship" transform="translate(83.28528572578718 25.714923665136865) rotate(402.50636418321454)"><path class="outline" fill="#A5ABB6" stroke="none" d="M 12.698856172145504,21.540405101092272 L 13.549972844582506,21.015428520757713 A 44.298796155445835 44.298796155445835 0 0 0 15.297000922814874,23.634672814621734 L 14.485321621815729,24.21877615507576 A 45.298796155445835 45.298796155445835 0 0 1 12.698856172145504,21.540405101092272 Z M 84.94675675589627,28.0373088995768 L 84.20295465089319,27.36890899787648 A 44.298796155445835 44.298796155445835 0 0 0 86.22281036065809,24.95380430267141 L 83.85461551740013,23.112160150190697 L 90.91467919032276,19.734957027149626 L 89.38040348500203,27.409329839312363 L 87.01220864174408,25.56768568683165 A 45.298796155445835 45.298796155445835 0 0 1 84.94675675589627,28.0373088995768"/><text text-anchor="middle" pointer-events="none" font-size="8px" fill="#000000" x="48.82918263190408" y="45.49275377692604" font-family="sans-serif">CHEAPEST_FLIGHT</text></g><g class="relationship" transform="translate(83.28528572578718 25.714923665136865) rotate(402.50636418321454)"><path class="outline" fill="#A5ABB6" stroke="none" d="M 5.987513214418485,24.277555179777966 L 6.953439040707552,24.018736134675446 A 45.86271178901648 45.86271178901648 0 0 0 14.619752059089095,39.741398787043494 L 13.82098409851126,40.3430380021503 A 46.86271178901648 46.86271178901648 0 0 1 5.987513214418485,24.277555179777966 Z M 84.87980864090665,44.78874496835332 L 84.16225751047,44.09223913549255 A 45.86271178901648 45.86271178901648 0 0 0 93.72845628723367,29.447707147770398 L 90.95005279936782,28.316126810978147 L 96.83187765439324,23.15336239888212 L 97.43299427105481,30.95648093016007 L 94.65459078318897,29.82490059336782 A 46.86271178901648 46.86271178901648 0 0 1 84.87980864090665,44.78874496835332"/><text text-anchor="middle" pointer-events="none" font-size="8px" fill="#000000" x="48.358451666644356" y="61.420833150699906" font-family="sans-serif">CHEAPEST_FLIGHT</text></g><g class="relationship" transform="translate(83.28528572578718 25.714923665136865) rotate(484.8112107336402)"><path class="outline" fill="#A5ABB6" stroke="none" d="M 24.018736134675446,6.953439040707552 L 24.277555179777966,5.987513214418485 A 104.84607410240096 104.84607410240096 0 0 0 24.658075806100154,6.0887079753437945 L 24.402886087413332,7.055598976168881 A 105.84607410240096 105.84607410240096 0 0 1 24.018736134675446,6.953439040707552 Z M 75.1395249684692,7.866672141876904 L 74.91537108077937,6.8921183800794665 A 104.84607410240096 104.84607410240096 0 0 0 75.29893183370068,6.8031381827671655 L 74.61549520310268,3.8820229210979433 L 82.22877354936188,5.69530525498336 L 76.21018067449802,10.697958531659461 L 75.52674404390002,7.7768432699902394 A 105.84607410240096 105.84607410240096 0 0 1 75.1395249684692,7.866672141876904"/><text text-anchor="middle" pointer-events="none" font-size="8px" fill="#000000" x="49.72987445690618" y="13.04659851641675" transform="rotate(180 49.72987445690618 10.04659851641675)" font-family="sans-serif">CHEAPES…</text></g><g class="relationship" transform="translate(83.28528572578718 25.714923665136865) rotate(400.4784587632234)"><path class="outline" fill="#A5ABB6" stroke="none" d="M 6.953439040707552 24.018736134675446 L 17.306200844808384 62.65576918623819 A 17.916697508022974 17.916697508022974 0 1 1 -17.306200844808384 62.65576918623819 L -8.765172356425198 30.780216918698923 L -4.901469051268926 31.815493099109005 L -6.4704761275630185 24.148145657226706 L -11.662949835292403 30.00375978339136 L -7.79924653013613 31.039035963801442 L -16.340275018519314 62.91458823134071 A 16.916697508022974 16.916697508022974 0 1 0 16.340275018519314 62.91458823134071 L 5.987513214418485 24.277555179777966 Z"/><text text-anchor="middle" pointer-events="none" font-size="8px" fill="#000000" x="0" y="94.20964923467838" font-family="sans-serif">BUSINESS…</text></g><g class="relationship" transform="translate(83.28528572578718 25.714923665136865) rotate(406.14570679280655)"><path class="outline" fill="#A5ABB6" stroke="none" d="M 6.953439040707552 24.018736134675446 L 17.306200844808384 62.65576918623819 A 17.916697508022974 17.916697508022974 0 1 1 -17.306200844808384 62.65576918623819 L -8.765172356425198 30.780216918698923 L -4.901469051268926 31.815493099109005 L -6.4704761275630185 24.148145657226706 L -11.662949835292403 30.00375978339136 L -7.79924653013613 31.039035963801442 L -16.340275018519314 62.91458823134071 A 16.916697508022974 16.916697508022974 0 1 0 16.340275018519314 62.91458823134071 L 5.987513214418485 24.277555179777966 Z"/><text text-anchor="middle" pointer-events="none" font-size="8px" fill="#000000" x="0" y="94.20964923467838" font-family="sans-serif">BUSINESS…</text></g><g class="relationship" transform="translate(83.28528572578718 25.714923665136865) rotate(411.81295482238966)"><path class="outline" fill="#A5ABB6" stroke="none" d="M 6.953439040707552 24.018736134675446 L 17.306200844808384 62.65576918623819 A 17.916697508022974 17.916697508022974 0 1 1 -17.306200844808384 62.65576918623819 L -8.765172356425198 30.780216918698923 L -4.901469051268926 31.815493099109005 L -6.4704761275630185 24.148145657226706 L -11.662949835292403 30.00375978339136 L -7.79924653013613 31.039035963801442 L -16.340275018519314 62.91458823134071 A 16.916697508022974 16.916697508022974 0 1 0 16.340275018519314 62.91458823134071 L 5.987513214418485 24.277555179777966 Z"/><text text-anchor="middle" pointer-events="none" font-size="8px" fill="#000000" x="0" y="94.20964923467838" font-family="sans-serif">BUSINESS…</text></g><g class="relationship" transform="translate(83.28528572578718 25.714923665136865) rotate(417.4802028519728)"><path class="outline" fill="#A5ABB6" stroke="none" d="M 6.953439040707552 24.018736134675446 L 17.306200844808384 62.65576918623819 A 17.916697508022974 17.916697508022974 0 1 1 -17.306200844808384 62.65576918623819 L -8.765172356425198 30.780216918698923 L -4.901469051268926 31.815493099109005 L -6.4704761275630185 24.148145657226706 L -11.662949835292403 30.00375978339136 L -7.79924653013613 31.039035963801442 L -16.340275018519314 62.91458823134071 A 16.916697508022974 16.916697508022974 0 1 0 16.340275018519314 62.91458823134071 L 5.987513214418485 24.277555179777966 Z"/><text text-anchor="middle" pointer-events="none" font-size="8px" fill="#000000" x="0" y="94.20964923467838" font-family="sans-serif">BUSINESS…</text></g><g class="relationship" transform="translate(83.28528572578718 25.714923665136865) rotate(423.147450881556)"><path class="outline" fill="#A5ABB6" stroke="none" d="M 6.953439040707552 24.018736134675446 L 17.306200844808384 62.65576918623819 A 17.916697508022974 17.916697508022974 0 1 1 -17.306200844808384 62.65576918623819 L -8.765172356425198 30.780216918698923 L -4.901469051268926 31.815493099109005 L -6.4704761275630185 24.148145657226706 L -11.662949835292403 30.00375978339136 L -7.79924653013613 31.039035963801442 L -16.340275018519314 62.91458823134071 A 16.916697508022974 16.916697508022974 0 1 0 16.340275018519314 62.91458823134071 L 5.987513214418485 24.277555179777966 Z"/><text text-anchor="middle" pointer-events="none" font-size="8px" fill="#000000" x="0" y="94.20964923467838" font-family="sans-serif">BUSINESS…</text></g><g class="relationship" transform="translate(83.28528572578718 25.714923665136865) rotate(428.81469891113915)"><path class="outline" fill="#A5ABB6" stroke="none" d="M 6.953439040707552 24.018736134675446 L 17.306200844808384 62.65576918623819 A 17.916697508022974 17.916697508022974 0 1 1 -17.306200844808384 62.65576918623819 L -8.765172356425198 30.780216918698923 L -4.901469051268926 31.815493099109005 L -6.4704761275630185 24.148145657226706 L -11.662949835292403 30.00375978339136 L -7.79924653013613 31.039035963801442 L -16.340275018519314 62.91458823134071 A 16.916697508022974 16.916697508022974 0 1 0 16.340275018519314 62.91458823134071 L 5.987513214418485 24.277555179777966 Z"/><text text-anchor="middle" pointer-events="none" font-size="8px" fill="#000000" x="0" y="94.20964923467838" font-family="sans-serif">BUSINESS…</text></g><g class="relationship" transform="translate(83.28528572578718 25.714923665136865) rotate(434.4819469407223)"><path class="outline" fill="#A5ABB6" stroke="none" d="M 6.953439040707552 24.018736134675446 L 17.306200844808384 62.65576918623819 A 17.916697508022974 17.916697508022974 0 1 1 -17.306200844808384 62.65576918623819 L -8.765172356425198 30.780216918698923 L -4.901469051268926 31.815493099109005 L -6.4704761275630185 24.148145657226706 L -11.662949835292403 30.00375978339136 L -7.79924653013613 31.039035963801442 L -16.340275018519314 62.91458823134071 A 16.916697508022974 16.916697508022974 0 1 0 16.340275018519314 62.91458823134071 L 5.987513214418485 24.277555179777966 Z"/><text text-anchor="middle" pointer-events="none" font-size="8px" fill="#000000" x="0" y="94.20964923467838" font-family="sans-serif">BUSINESS…</text></g><g class="relationship" transform="translate(83.28528572578718 25.714923665136865) rotate(440.1491949703054)"><path class="outline" fill="#A5ABB6" stroke="none" d="M 6.953439040707552 24.018736134675446 L 17.306200844808384 62.65576918623819 A 17.916697508022974 17.916697508022974 0 1 1 -17.306200844808384 62.65576918623819 L -8.765172356425198 30.780216918698923 L -4.901469051268926 31.815493099109005 L -6.4704761275630185 24.148145657226706 L -11.662949835292403 30.00375978339136 L -7.79924653013613 31.039035963801442 L -16.340275018519314 62.91458823134071 A 16.916697508022974 16.916697508022974 0 1 0 16.340275018519314 62.91458823134071 L 5.987513214418485 24.277555179777966 Z"/><text text-anchor="middle" pointer-events="none" font-size="8px" fill="#000000" x="0" y="94.20964923467838" font-family="sans-serif">BUSINESS…</text></g><g class="relationship" transform="translate(83.28528572578718 25.714923665136865) rotate(445.8164429998886)"><path class="outline" fill="#A5ABB6" stroke="none" d="M 6.953439040707552 24.018736134675446 L 17.306200844808384 62.65576918623819 A 17.916697508022974 17.916697508022974 0 1 1 -17.306200844808384 62.65576918623819 L -8.765172356425198 30.780216918698923 L -4.901469051268926 31.815493099109005 L -6.4704761275630185 24.148145657226706 L -11.662949835292403 30.00375978339136 L -7.79924653013613 31.039035963801442 L -16.340275018519314 62.91458823134071 A 16.916697508022974 16.916697508022974 0 1 0 16.340275018519314 62.91458823134071 L 5.987513214418485 24.277555179777966 Z"/><text text-anchor="middle" pointer-events="none" font-size="8px" fill="#000000" x="0" y="94.20964923467838" font-family="sans-serif">BUSINESS…</text></g><g class="relationship" transform="translate(83.28528572578718 25.714923665136865) rotate(451.48369102947174)"><path class="outline" fill="#A5ABB6" stroke="none" d="M 6.953439040707552 24.018736134675446 L 17.306200844808384 62.65576918623819 A 17.916697508022974 17.916697508022974 0 1 1 -17.306200844808384 62.65576918623819 L -8.765172356425198 30.780216918698923 L -4.901469051268926 31.815493099109005 L -6.4704761275630185 24.148145657226706 L -11.662949835292403 30.00375978339136 L -7.79924653013613 31.039035963801442 L -16.340275018519314 62.91458823134071 A 16.916697508022974 16.916697508022974 0 1 0 16.340275018519314 62.91458823134071 L 5.987513214418485 24.277555179777966 Z"/><text text-anchor="middle" pointer-events="none" font-size="8px" fill="#000000" x="0" y="94.20964923467838" transform="rotate(180 0 91.20964923467838)" font-family="sans-serif">BUSINESS…</text></g><g class="relationship" transform="translate(83.28528572578718 25.714923665136865) rotate(457.1509390590549)"><path class="outline" fill="#A5ABB6" stroke="none" d="M 6.953439040707552 24.018736134675446 L 17.306200844808384 62.65576918623819 A 17.916697508022974 17.916697508022974 0 1 1 -17.306200844808384 62.65576918623819 L -8.765172356425198 30.780216918698923 L -4.901469051268926 31.815493099109005 L -6.4704761275630185 24.148145657226706 L -11.662949835292403 30.00375978339136 L -7.79924653013613 31.039035963801442 L -16.340275018519314 62.91458823134071 A 16.916697508022974 16.916697508022974 0 1 0 16.340275018519314 62.91458823134071 L 5.987513214418485 24.277555179777966 Z"/><text text-anchor="middle" pointer-events="none" font-size="8px" fill="#000000" x="0" y="94.20964923467838" transform="rotate(180 0 91.20964923467838)" font-family="sans-serif">BUSINESS…</text></g><g class="relationship" transform="translate(83.28528572578718 25.714923665136865) rotate(462.81818708863807)"><path class="outline" fill="#A5ABB6" stroke="none" d="M 6.953439040707552 24.018736134675446 L 17.306200844808384 62.65576918623819 A 17.916697508022974 17.916697508022974 0 1 1 -17.306200844808384 62.65576918623819 L -8.765172356425198 30.780216918698923 L -4.901469051268926 31.815493099109005 L -6.4704761275630185 24.148145657226706 L -11.662949835292403 30.00375978339136 L -7.79924653013613 31.039035963801442 L -16.340275018519314 62.91458823134071 A 16.916697508022974 16.916697508022974 0 1 0 16.340275018519314 62.91458823134071 L 5.987513214418485 24.277555179777966 Z"/><text text-anchor="middle" pointer-events="none" font-size="8px" fill="#000000" x="0" y="94.20964923467838" transform="rotate(180 0 91.20964923467838)" font-family="sans-serif">BUSINESS…</text></g><g class="relationship" transform="translate(83.28528572578718 25.714923665136865) rotate(468.4854351182212)"><path class="outline" fill="#A5ABB6" stroke="none" d="M 6.953439040707552 24.018736134675446 L 17.306200844808384 62.65576918623819 A 17.916697508022974 17.916697508022974 0 1 1 -17.306200844808384 62.65576918623819 L -8.765172356425198 30.780216918698923 L -4.901469051268926 31.815493099109005 L -6.4704761275630185 24.148145657226706 L -11.662949835292403 30.00375978339136 L -7.79924653013613 31.039035963801442 L -16.340275018519314 62.91458823134071 A 16.916697508022974 16.916697508022974 0 1 0 16.340275018519314 62.91458823134071 L 5.987513214418485 24.277555179777966 Z"/><text text-anchor="middle" pointer-events="none" font-size="8px" fill="#000000" x="0" y="94.20964923467838" transform="rotate(180 0 91.20964923467838)" font-family="sans-serif">BUSINESS…</text></g><g class="relationship" transform="translate(83.28528572578718 25.714923665136865) rotate(474.15268314780434)"><path class="outline" fill="#A5ABB6" stroke="none" d="M 6.953439040707552 24.018736134675446 L 17.306200844808384 62.65576918623819 A 17.916697508022974 17.916697508022974 0 1 1 -17.306200844808384 62.65576918623819 L -8.765172356425198 30.780216918698923 L -4.901469051268926 31.815493099109005 L -6.4704761275630185 24.148145657226706 L -11.662949835292403 30.00375978339136 L -7.79924653013613 31.039035963801442 L -16.340275018519314 62.91458823134071 A 16.916697508022974 16.916697508022974 0 1 0 16.340275018519314 62.91458823134071 L 5.987513214418485 24.277555179777966 Z"/><text text-anchor="middle" pointer-events="none" font-size="8px" fill="#000000" x="0" y="94.20964923467838" transform="rotate(180 0 91.20964923467838)" font-family="sans-serif">BUSINESS…</text></g><g class="relationship" transform="translate(83.28528572578718 25.714923665136865) rotate(479.8199311773875)"><path class="outline" fill="#A5ABB6" stroke="none" d="M 6.953439040707552 24.018736134675446 L 17.306200844808384 62.65576918623819 A 17.916697508022974 17.916697508022974 0 1 1 -17.306200844808384 62.65576918623819 L -8.765172356425198 30.780216918698923 L -4.901469051268926 31.815493099109005 L -6.4704761275630185 24.148145657226706 L -11.662949835292403 30.00375978339136 L -7.79924653013613 31.039035963801442 L -16.340275018519314 62.91458823134071 A 16.916697508022974 16.916697508022974 0 1 0 16.340275018519314 62.91458823134071 L 5.987513214418485 24.277555179777966 Z"/><text text-anchor="middle" pointer-events="none" font-size="8px" fill="#000000" x="0" y="94.20964923467838" transform="rotate(180 0 91.20964923467838)" font-family="sans-serif">BUSINESS…</text></g><g class="relationship" transform="translate(83.28528572578718 25.714923665136865) rotate(485.4871792069706)"><path class="outline" fill="#A5ABB6" stroke="none" d="M 6.953439040707552 24.018736134675446 L 17.306200844808384 62.65576918623819 A 17.916697508022974 17.916697508022974 0 1 1 -17.306200844808384 62.65576918623819 L -8.765172356425198 30.780216918698923 L -4.901469051268926 31.815493099109005 L -6.4704761275630185 24.148145657226706 L -11.662949835292403 30.00375978339136 L -7.79924653013613 31.039035963801442 L -16.340275018519314 62.91458823134071 A 16.916697508022974 16.916697508022974 0 1 0 16.340275018519314 62.91458823134071 L 5.987513214418485 24.277555179777966 Z"/><text text-anchor="middle" pointer-events="none" font-size="8px" fill="#000000" x="0" y="94.20964923467838" transform="rotate(180 0 91.20964923467838)" font-family="sans-serif">BUSINESS…</text></g><g class="relationship" transform="translate(83.28528572578718 25.714923665136865) rotate(491.1544272365538)"><path class="outline" fill="#A5ABB6" stroke="none" d="M 6.953439040707552 24.018736134675446 L 17.306200844808384 62.65576918623819 A 17.916697508022974 17.916697508022974 0 1 1 -17.306200844808384 62.65576918623819 L -8.765172356425198 30.780216918698923 L -4.901469051268926 31.815493099109005 L -6.4704761275630185 24.148145657226706 L -11.662949835292403 30.00375978339136 L -7.79924653013613 31.039035963801442 L -16.340275018519314 62.91458823134071 A 16.916697508022974 16.916697508022974 0 1 0 16.340275018519314 62.91458823134071 L 5.987513214418485 24.277555179777966 Z"/><text text-anchor="middle" pointer-events="none" font-size="8px" fill="#000000" x="0" y="94.20964923467838" transform="rotate(180 0 91.20964923467838)" font-family="sans-serif">BUSINESS…</text></g><g class="relationship" transform="translate(83.28528572578718 25.714923665136865) rotate(496.82167526613694)"><path class="outline" fill="#A5ABB6" stroke="none" d="M 6.953439040707552 24.018736134675446 L 17.306200844808384 62.65576918623819 A 17.916697508022974 17.916697508022974 0 1 1 -17.306200844808384 62.65576918623819 L -8.765172356425198 30.780216918698923 L -4.901469051268926 31.815493099109005 L -6.4704761275630185 24.148145657226706 L -11.662949835292403 30.00375978339136 L -7.79924653013613 31.039035963801442 L -16.340275018519314 62.91458823134071 A 16.916697508022974 16.916697508022974 0 1 0 16.340275018519314 62.91458823134071 L 5.987513214418485 24.277555179777966 Z"/><text text-anchor="middle" pointer-events="none" font-size="8px" fill="#000000" x="0" y="94.20964923467838" transform="rotate(180 0 91.20964923467838)" font-family="sans-serif">BUSINESS…</text></g><g class="relationship" transform="translate(83.28528572578718 25.714923665136865) rotate(502.4889232957201)"><path class="outline" fill="#A5ABB6" stroke="none" d="M 6.953439040707552 24.018736134675446 L 17.306200844808384 62.65576918623819 A 17.916697508022974 17.916697508022974 0 1 1 -17.306200844808384 62.65576918623819 L -8.765172356425198 30.780216918698923 L -4.901469051268926 31.815493099109005 L -6.4704761275630185 24.148145657226706 L -11.662949835292403 30.00375978339136 L -7.79924653013613 31.039035963801442 L -16.340275018519314 62.91458823134071 A 16.916697508022974 16.916697508022974 0 1 0 16.340275018519314 62.91458823134071 L 5.987513214418485 24.277555179777966 Z"/><text text-anchor="middle" pointer-events="none" font-size="8px" fill="#000000" x="0" y="94.20964923467838" transform="rotate(180 0 91.20964923467838)" font-family="sans-serif">BUSINESS…</text></g><g class="relationship" transform="translate(83.28528572578718 25.714923665136865) rotate(508.15617132530326)"><path class="outline" fill="#A5ABB6" stroke="none" d="M 6.953439040707552 24.018736134675446 L 17.306200844808384 62.65576918623819 A 17.916697508022974 17.916697508022974 0 1 1 -17.306200844808384 62.65576918623819 L -8.765172356425198 30.780216918698923 L -4.901469051268926 31.815493099109005 L -6.4704761275630185 24.148145657226706 L -11.662949835292403 30.00375978339136 L -7.79924653013613 31.039035963801442 L -16.340275018519314 62.91458823134071 A 16.916697508022974 16.916697508022974 0 1 0 16.340275018519314 62.91458823134071 L 5.987513214418485 24.277555179777966 Z"/><text text-anchor="middle" pointer-events="none" font-size="8px" fill="#000000" x="0" y="94.20964923467838" transform="rotate(180 0 91.20964923467838)" font-family="sans-serif">BUSINESS…</text></g><g class="relationship" transform="translate(83.28528572578718 25.714923665136865) rotate(513.8234193548864)"><path class="outline" fill="#A5ABB6" stroke="none" d="M 6.953439040707552 24.018736134675446 L 17.306200844808384 62.65576918623819 A 17.916697508022974 17.916697508022974 0 1 1 -17.306200844808384 62.65576918623819 L -8.765172356425198 30.780216918698923 L -4.901469051268926 31.815493099109005 L -6.4704761275630185 24.148145657226706 L -11.662949835292403 30.00375978339136 L -7.79924653013613 31.039035963801442 L -16.340275018519314 62.91458823134071 A 16.916697508022974 16.916697508022974 0 1 0 16.340275018519314 62.91458823134071 L 5.987513214418485 24.277555179777966 Z"/><text text-anchor="middle" pointer-events="none" font-size="8px" fill="#000000" x="0" y="94.20964923467838" transform="rotate(180 0 91.20964923467838)" font-family="sans-serif">BUSINESS…</text></g><g class="relationship" transform="translate(83.28528572578718 25.714923665136865) rotate(519.4906673844696)"><path class="outline" fill="#A5ABB6" stroke="none" d="M 6.953439040707552 24.018736134675446 L 17.306200844808384 62.65576918623819 A 17.916697508022974 17.916697508022974 0 1 1 -17.306200844808384 62.65576918623819 L -8.765172356425198 30.780216918698923 L -4.901469051268926 31.815493099109005 L -6.4704761275630185 24.148145657226706 L -11.662949835292403 30.00375978339136 L -7.79924653013613 31.039035963801442 L -16.340275018519314 62.91458823134071 A 16.916697508022974 16.916697508022974 0 1 0 16.340275018519314 62.91458823134071 L 5.987513214418485 24.277555179777966 Z"/><text text-anchor="middle" pointer-events="none" font-size="8px" fill="#000000" x="0" y="94.20964923467838" transform="rotate(180 0 91.20964923467838)" font-family="sans-serif">BUSINESS…</text></g><g class="relationship" transform="translate(83.28528572578718 25.714923665136865) rotate(525.1579154140527)"><path class="outline" fill="#A5ABB6" stroke="none" d="M 6.953439040707552 24.018736134675446 L 17.306200844808384 62.65576918623819 A 17.916697508022974 17.916697508022974 0 1 1 -17.306200844808384 62.65576918623819 L -8.765172356425198 30.780216918698923 L -4.901469051268926 31.815493099109005 L -6.4704761275630185 24.148145657226706 L -11.662949835292403 30.00375978339136 L -7.79924653013613 31.039035963801442 L -16.340275018519314 62.91458823134071 A 16.916697508022974 16.916697508022974 0 1 0 16.340275018519314 62.91458823134071 L 5.987513214418485 24.277555179777966 Z"/><text text-anchor="middle" pointer-events="none" font-size="8px" fill="#000000" x="0" y="94.20964923467838" transform="rotate(180 0 91.20964923467838)" font-family="sans-serif">BUSINESS…</text></g><g class="relationship" transform="translate(83.28528572578718 25.714923665136865) rotate(530.8251634436358)"><path class="outline" fill="#A5ABB6" stroke="none" d="M 6.953439040707552 24.018736134675446 L 17.306200844808384 62.65576918623819 A 17.916697508022974 17.916697508022974 0 1 1 -17.306200844808384 62.65576918623819 L -8.765172356425198 30.780216918698923 L -4.901469051268926 31.815493099109005 L -6.4704761275630185 24.148145657226706 L -11.662949835292403 30.00375978339136 L -7.79924653013613 31.039035963801442 L -16.340275018519314 62.91458823134071 A 16.916697508022974 16.916697508022974 0 1 0 16.340275018519314 62.91458823134071 L 5.987513214418485 24.277555179777966 Z"/><text text-anchor="middle" pointer-events="none" font-size="8px" fill="#000000" x="0" y="94.20964923467838" transform="rotate(180 0 91.20964923467838)" font-family="sans-serif">BUSINESS…</text></g><g class="relationship" transform="translate(83.28528572578718 25.714923665136865) rotate(536.492411473219)"><path class="outline" fill="#A5ABB6" stroke="none" d="M 6.953439040707552 24.018736134675446 L 17.306200844808384 62.65576918623819 A 17.916697508022974 17.916697508022974 0 1 1 -17.306200844808384 62.65576918623819 L -8.765172356425198 30.780216918698923 L -4.901469051268926 31.815493099109005 L -6.4704761275630185 24.148145657226706 L -11.662949835292403 30.00375978339136 L -7.79924653013613 31.039035963801442 L -16.340275018519314 62.91458823134071 A 16.916697508022974 16.916697508022974 0 1 0 16.340275018519314 62.91458823134071 L 5.987513214418485 24.277555179777966 Z"/><text text-anchor="middle" pointer-events="none" font-size="8px" fill="#000000" x="0" y="94.20964923467838" transform="rotate(180 0 91.20964923467838)" font-family="sans-serif">BUSINESS…</text></g><g class="relationship" transform="translate(83.28528572578718 25.714923665136865) rotate(182.15965950280213)"><path class="outline" fill="#A5ABB6" stroke="none" d="M 6.953439040707552 24.018736134675446 L 17.306200844808384 62.65576918623819 A 17.916697508022974 17.916697508022974 0 1 1 -17.306200844808384 62.65576918623819 L -8.765172356425198 30.780216918698923 L -4.901469051268926 31.815493099109005 L -6.4704761275630185 24.148145657226706 L -11.662949835292403 30.00375978339136 L -7.79924653013613 31.039035963801442 L -16.340275018519314 62.91458823134071 A 16.916697508022974 16.916697508022974 0 1 0 16.340275018519314 62.91458823134071 L 5.987513214418485 24.277555179777966 Z"/><text text-anchor="middle" pointer-events="none" font-size="8px" fill="#000000" x="0" y="94.20964923467838" transform="rotate(180 0 91.20964923467838)" font-family="sans-serif">BUSINESS…</text></g><g class="relationship" transform="translate(83.28528572578718 25.714923665136865) rotate(187.8269075323853)"><path class="outline" fill="#A5ABB6" stroke="none" d="M 6.953439040707552 24.018736134675446 L 17.306200844808384 62.65576918623819 A 17.916697508022974 17.916697508022974 0 1 1 -17.306200844808384 62.65576918623819 L -8.765172356425198 30.780216918698923 L -4.901469051268926 31.815493099109005 L -6.4704761275630185 24.148145657226706 L -11.662949835292403 30.00375978339136 L -7.79924653013613 31.039035963801442 L -16.340275018519314 62.91458823134071 A 16.916697508022974 16.916697508022974 0 1 0 16.340275018519314 62.91458823134071 L 5.987513214418485 24.277555179777966 Z"/><text text-anchor="middle" pointer-events="none" font-size="8px" fill="#000000" x="0" y="94.20964923467838" transform="rotate(180 0 91.20964923467838)" font-family="sans-serif">BUSINESS…</text></g><g class="relationship" transform="translate(83.28528572578718 25.714923665136865) rotate(193.49415556196846)"><path class="outline" fill="#A5ABB6" stroke="none" d="M 6.953439040707552 24.018736134675446 L 17.306200844808384 62.65576918623819 A 17.916697508022974 17.916697508022974 0 1 1 -17.306200844808384 62.65576918623819 L -8.765172356425198 30.780216918698923 L -4.901469051268926 31.815493099109005 L -6.4704761275630185 24.148145657226706 L -11.662949835292403 30.00375978339136 L -7.79924653013613 31.039035963801442 L -16.340275018519314 62.91458823134071 A 16.916697508022974 16.916697508022974 0 1 0 16.340275018519314 62.91458823134071 L 5.987513214418485 24.277555179777966 Z"/><text text-anchor="middle" pointer-events="none" font-size="8px" fill="#000000" x="0" y="94.20964923467838" transform="rotate(180 0 91.20964923467838)" font-family="sans-serif">BUSINESS…</text></g><g class="relationship" transform="translate(83.28528572578718 25.714923665136865) rotate(199.16140359155156)"><path class="outline" fill="#A5ABB6" stroke="none" d="M 6.953439040707552 24.018736134675446 L 17.306200844808384 62.65576918623819 A 17.916697508022974 17.916697508022974 0 1 1 -17.306200844808384 62.65576918623819 L -8.765172356425198 30.780216918698923 L -4.901469051268926 31.815493099109005 L -6.4704761275630185 24.148145657226706 L -11.662949835292403 30.00375978339136 L -7.79924653013613 31.039035963801442 L -16.340275018519314 62.91458823134071 A 16.916697508022974 16.916697508022974 0 1 0 16.340275018519314 62.91458823134071 L 5.987513214418485 24.277555179777966 Z"/><text text-anchor="middle" pointer-events="none" font-size="8px" fill="#000000" x="0" y="94.20964923467838" transform="rotate(180 0 91.20964923467838)" font-family="sans-serif">BUSINESS…</text></g><g class="relationship" transform="translate(83.28528572578718 25.714923665136865) rotate(204.82865162113478)"><path class="outline" fill="#A5ABB6" stroke="none" d="M 6.953439040707552 24.018736134675446 L 17.306200844808384 62.65576918623819 A 17.916697508022974 17.916697508022974 0 1 1 -17.306200844808384 62.65576918623819 L -8.765172356425198 30.780216918698923 L -4.901469051268926 31.815493099109005 L -6.4704761275630185 24.148145657226706 L -11.662949835292403 30.00375978339136 L -7.79924653013613 31.039035963801442 L -16.340275018519314 62.91458823134071 A 16.916697508022974 16.916697508022974 0 1 0 16.340275018519314 62.91458823134071 L 5.987513214418485 24.277555179777966 Z"/><text text-anchor="middle" pointer-events="none" font-size="8px" fill="#000000" x="0" y="94.20964923467838" transform="rotate(180 0 91.20964923467838)" font-family="sans-serif">BUSINESS…</text></g><g class="relationship" transform="translate(83.28528572578718 25.714923665136865) rotate(210.4958996507179)"><path class="outline" fill="#A5ABB6" stroke="none" d="M 6.953439040707552 24.018736134675446 L 17.306200844808384 62.65576918623819 A 17.916697508022974 17.916697508022974 0 1 1 -17.306200844808384 62.65576918623819 L -8.765172356425198 30.780216918698923 L -4.901469051268926 31.815493099109005 L -6.4704761275630185 24.148145657226706 L -11.662949835292403 30.00375978339136 L -7.79924653013613 31.039035963801442 L -16.340275018519314 62.91458823134071 A 16.916697508022974 16.916697508022974 0 1 0 16.340275018519314 62.91458823134071 L 5.987513214418485 24.277555179777966 Z"/><text text-anchor="middle" pointer-events="none" font-size="8px" fill="#000000" x="0" y="94.20964923467838" transform="rotate(180 0 91.20964923467838)" font-family="sans-serif">BUSINESS…</text></g><g class="relationship" transform="translate(83.28528572578718 25.714923665136865) rotate(216.16314768030105)"><path class="outline" fill="#A5ABB6" stroke="none" d="M 6.953439040707552 24.018736134675446 L 17.306200844808384 62.65576918623819 A 17.916697508022974 17.916697508022974 0 1 1 -17.306200844808384 62.65576918623819 L -8.765172356425198 30.780216918698923 L -4.901469051268926 31.815493099109005 L -6.4704761275630185 24.148145657226706 L -11.662949835292403 30.00375978339136 L -7.79924653013613 31.039035963801442 L -16.340275018519314 62.91458823134071 A 16.916697508022974 16.916697508022974 0 1 0 16.340275018519314 62.91458823134071 L 5.987513214418485 24.277555179777966 Z"/><text text-anchor="middle" pointer-events="none" font-size="8px" fill="#000000" x="0" y="94.20964923467838" transform="rotate(180 0 91.20964923467838)" font-family="sans-serif">BUSINESS…</text></g><g class="relationship" transform="translate(83.28528572578718 25.714923665136865) rotate(221.83039570988421)"><path class="outline" fill="#A5ABB6" stroke="none" d="M 6.953439040707552 24.018736134675446 L 17.306200844808384 62.65576918623819 A 17.916697508022974 17.916697508022974 0 1 1 -17.306200844808384 62.65576918623819 L -8.765172356425198 30.780216918698923 L -4.901469051268926 31.815493099109005 L -6.4704761275630185 24.148145657226706 L -11.662949835292403 30.00375978339136 L -7.79924653013613 31.039035963801442 L -16.340275018519314 62.91458823134071 A 16.916697508022974 16.916697508022974 0 1 0 16.340275018519314 62.91458823134071 L 5.987513214418485 24.277555179777966 Z"/><text text-anchor="middle" pointer-events="none" font-size="8px" fill="#000000" x="0" y="94.20964923467838" transform="rotate(180 0 91.20964923467838)" font-family="sans-serif">BUSINESS…</text></g><g class="relationship" transform="translate(83.28528572578718 25.714923665136865) rotate(227.49764373946732)"><path class="outline" fill="#A5ABB6" stroke="none" d="M 6.953439040707552 24.018736134675446 L 17.306200844808384 62.65576918623819 A 17.916697508022974 17.916697508022974 0 1 1 -17.306200844808384 62.65576918623819 L -8.765172356425198 30.780216918698923 L -4.901469051268926 31.815493099109005 L -6.4704761275630185 24.148145657226706 L -11.662949835292403 30.00375978339136 L -7.79924653013613 31.039035963801442 L -16.340275018519314 62.91458823134071 A 16.916697508022974 16.916697508022974 0 1 0 16.340275018519314 62.91458823134071 L 5.987513214418485 24.277555179777966 Z"/><text text-anchor="middle" pointer-events="none" font-size="8px" fill="#000000" x="0" y="94.20964923467838" transform="rotate(180 0 91.20964923467838)" font-family="sans-serif">BUSINESS…</text></g><g class="relationship" transform="translate(83.28528572578718 25.714923665136865) rotate(233.16489176905054)"><path class="outline" fill="#A5ABB6" stroke="none" d="M 6.953439040707552 24.018736134675446 L 17.306200844808384 62.65576918623819 A 17.916697508022974 17.916697508022974 0 1 1 -17.306200844808384 62.65576918623819 L -8.765172356425198 30.780216918698923 L -4.901469051268926 31.815493099109005 L -6.4704761275630185 24.148145657226706 L -11.662949835292403 30.00375978339136 L -7.79924653013613 31.039035963801442 L -16.340275018519314 62.91458823134071 A 16.916697508022974 16.916697508022974 0 1 0 16.340275018519314 62.91458823134071 L 5.987513214418485 24.277555179777966 Z"/><text text-anchor="middle" pointer-events="none" font-size="8px" fill="#000000" x="0" y="94.20964923467838" transform="rotate(180 0 91.20964923467838)" font-family="sans-serif">BUSINESS…</text></g><g class="relationship" transform="translate(83.28528572578718 25.714923665136865) rotate(238.83213979863365)"><path class="outline" fill="#A5ABB6" stroke="none" d="M 6.953439040707552 24.018736134675446 L 17.306200844808384 62.65576918623819 A 17.916697508022974 17.916697508022974 0 1 1 -17.306200844808384 62.65576918623819 L -8.765172356425198 30.780216918698923 L -4.901469051268926 31.815493099109005 L -6.4704761275630185 24.148145657226706 L -11.662949835292403 30.00375978339136 L -7.79924653013613 31.039035963801442 L -16.340275018519314 62.91458823134071 A 16.916697508022974 16.916697508022974 0 1 0 16.340275018519314 62.91458823134071 L 5.987513214418485 24.277555179777966 Z"/><text text-anchor="middle" pointer-events="none" font-size="8px" fill="#000000" x="0" y="94.20964923467838" transform="rotate(180 0 91.20964923467838)" font-family="sans-serif">BUSINESS…</text></g><g class="relationship" transform="translate(83.28528572578718 25.714923665136865) rotate(244.49938782821687)"><path class="outline" fill="#A5ABB6" stroke="none" d="M 6.953439040707552 24.018736134675446 L 17.306200844808384 62.65576918623819 A 17.916697508022974 17.916697508022974 0 1 1 -17.306200844808384 62.65576918623819 L -8.765172356425198 30.780216918698923 L -4.901469051268926 31.815493099109005 L -6.4704761275630185 24.148145657226706 L -11.662949835292403 30.00375978339136 L -7.79924653013613 31.039035963801442 L -16.340275018519314 62.91458823134071 A 16.916697508022974 16.916697508022974 0 1 0 16.340275018519314 62.91458823134071 L 5.987513214418485 24.277555179777966 Z"/><text text-anchor="middle" pointer-events="none" font-size="8px" fill="#000000" x="0" y="94.20964923467838" transform="rotate(180 0 91.20964923467838)" font-family="sans-serif">BUSINESS…</text></g><g class="relationship" transform="translate(83.28528572578718 25.714923665136865) rotate(250.16663585779997)"><path class="outline" fill="#A5ABB6" stroke="none" d="M 6.953439040707552 24.018736134675446 L 17.306200844808384 62.65576918623819 A 17.916697508022974 17.916697508022974 0 1 1 -17.306200844808384 62.65576918623819 L -8.765172356425198 30.780216918698923 L -4.901469051268926 31.815493099109005 L -6.4704761275630185 24.148145657226706 L -11.662949835292403 30.00375978339136 L -7.79924653013613 31.039035963801442 L -16.340275018519314 62.91458823134071 A 16.916697508022974 16.916697508022974 0 1 0 16.340275018519314 62.91458823134071 L 5.987513214418485 24.277555179777966 Z"/><text text-anchor="middle" pointer-events="none" font-size="8px" fill="#000000" x="0" y="94.20964923467838" transform="rotate(180 0 91.20964923467838)" font-family="sans-serif">BUSINESS…</text></g><g class="relationship" transform="translate(83.28528572578718 25.714923665136865) rotate(255.83388388738308)"><path class="outline" fill="#A5ABB6" stroke="none" d="M 6.953439040707552 24.018736134675446 L 17.306200844808384 62.65576918623819 A 17.916697508022974 17.916697508022974 0 1 1 -17.306200844808384 62.65576918623819 L -8.765172356425198 30.780216918698923 L -4.901469051268926 31.815493099109005 L -6.4704761275630185 24.148145657226706 L -11.662949835292403 30.00375978339136 L -7.79924653013613 31.039035963801442 L -16.340275018519314 62.91458823134071 A 16.916697508022974 16.916697508022974 0 1 0 16.340275018519314 62.91458823134071 L 5.987513214418485 24.277555179777966 Z"/><text text-anchor="middle" pointer-events="none" font-size="8px" fill="#000000" x="0" y="94.20964923467838" transform="rotate(180 0 91.20964923467838)" font-family="sans-serif">BUSINESS…</text></g><g class="relationship" transform="translate(83.28528572578718 25.714923665136865) rotate(261.5011319169662)"><path class="outline" fill="#A5ABB6" stroke="none" d="M 6.953439040707552 24.018736134675446 L 17.306200844808384 62.65576918623819 A 17.916697508022974 17.916697508022974 0 1 1 -17.306200844808384 62.65576918623819 L -8.765172356425198 30.780216918698923 L -4.901469051268926 31.815493099109005 L -6.4704761275630185 24.148145657226706 L -11.662949835292403 30.00375978339136 L -7.79924653013613 31.039035963801442 L -16.340275018519314 62.91458823134071 A 16.916697508022974 16.916697508022974 0 1 0 16.340275018519314 62.91458823134071 L 5.987513214418485 24.277555179777966 Z"/><text text-anchor="middle" pointer-events="none" font-size="8px" fill="#000000" x="0" y="94.20964923467838" transform="rotate(180 0 91.20964923467838)" font-family="sans-serif">BUSINESS…</text></g><g class="relationship" transform="translate(83.28528572578718 25.714923665136865) rotate(267.1683799465494)"><path class="outline" fill="#A5ABB6" stroke="none" d="M 6.953439040707552 24.018736134675446 L 17.306200844808384 62.65576918623819 A 17.916697508022974 17.916697508022974 0 1 1 -17.306200844808384 62.65576918623819 L -8.765172356425198 30.780216918698923 L -4.901469051268926 31.815493099109005 L -6.4704761275630185 24.148145657226706 L -11.662949835292403 30.00375978339136 L -7.79924653013613 31.039035963801442 L -16.340275018519314 62.91458823134071 A 16.916697508022974 16.916697508022974 0 1 0 16.340275018519314 62.91458823134071 L 5.987513214418485 24.277555179777966 Z"/><text text-anchor="middle" pointer-events="none" font-size="8px" fill="#000000" x="0" y="94.20964923467838" transform="rotate(180 0 91.20964923467838)" font-family="sans-serif">BUSINESS…</text></g><g class="relationship" transform="translate(83.28528572578718 25.714923665136865) rotate(272.8356279761326)"><path class="outline" fill="#A5ABB6" stroke="none" d="M 6.953439040707552 24.018736134675446 L 17.306200844808384 62.65576918623819 A 17.916697508022974 17.916697508022974 0 1 1 -17.306200844808384 62.65576918623819 L -8.765172356425198 30.780216918698923 L -4.901469051268926 31.815493099109005 L -6.4704761275630185 24.148145657226706 L -11.662949835292403 30.00375978339136 L -7.79924653013613 31.039035963801442 L -16.340275018519314 62.91458823134071 A 16.916697508022974 16.916697508022974 0 1 0 16.340275018519314 62.91458823134071 L 5.987513214418485 24.277555179777966 Z"/><text text-anchor="middle" pointer-events="none" font-size="8px" fill="#000000" x="0" y="94.20964923467838" font-family="sans-serif">BUSINESS…</text></g><g class="relationship" transform="translate(83.28528572578718 25.714923665136865) rotate(278.50287600571573)"><path class="outline" fill="#A5ABB6" stroke="none" d="M 6.953439040707552 24.018736134675446 L 17.306200844808384 62.65576918623819 A 17.916697508022974 17.916697508022974 0 1 1 -17.306200844808384 62.65576918623819 L -8.765172356425198 30.780216918698923 L -4.901469051268926 31.815493099109005 L -6.4704761275630185 24.148145657226706 L -11.662949835292403 30.00375978339136 L -7.79924653013613 31.039035963801442 L -16.340275018519314 62.91458823134071 A 16.916697508022974 16.916697508022974 0 1 0 16.340275018519314 62.91458823134071 L 5.987513214418485 24.277555179777966 Z"/><text text-anchor="middle" pointer-events="none" font-size="8px" fill="#000000" x="0" y="94.20964923467838" font-family="sans-serif">BUSINESS…</text></g><g class="relationship" transform="translate(83.28528572578718 25.714923665136865) rotate(284.17012403529884)"><path class="outline" fill="#A5ABB6" stroke="none" d="M 6.953439040707552 24.018736134675446 L 17.306200844808384 62.65576918623819 A 17.916697508022974 17.916697508022974 0 1 1 -17.306200844808384 62.65576918623819 L -8.765172356425198 30.780216918698923 L -4.901469051268926 31.815493099109005 L -6.4704761275630185 24.148145657226706 L -11.662949835292403 30.00375978339136 L -7.79924653013613 31.039035963801442 L -16.340275018519314 62.91458823134071 A 16.916697508022974 16.916697508022974 0 1 0 16.340275018519314 62.91458823134071 L 5.987513214418485 24.277555179777966 Z"/><text text-anchor="middle" pointer-events="none" font-size="8px" fill="#000000" x="0" y="94.20964923467838" font-family="sans-serif">BUSINESS…</text></g><g class="relationship" transform="translate(83.28528572578718 25.714923665136865) rotate(289.83737206488195)"><path class="outline" fill="#A5ABB6" stroke="none" d="M 6.953439040707552 24.018736134675446 L 17.306200844808384 62.65576918623819 A 17.916697508022974 17.916697508022974 0 1 1 -17.306200844808384 62.65576918623819 L -8.765172356425198 30.780216918698923 L -4.901469051268926 31.815493099109005 L -6.4704761275630185 24.148145657226706 L -11.662949835292403 30.00375978339136 L -7.79924653013613 31.039035963801442 L -16.340275018519314 62.91458823134071 A 16.916697508022974 16.916697508022974 0 1 0 16.340275018519314 62.91458823134071 L 5.987513214418485 24.277555179777966 Z"/><text text-anchor="middle" pointer-events="none" font-size="8px" fill="#000000" x="0" y="94.20964923467838" font-family="sans-serif">BUSINESS…</text></g><g class="relationship" transform="translate(83.28528572578718 25.714923665136865) rotate(295.50462009446517)"><path class="outline" fill="#A5ABB6" stroke="none" d="M 6.953439040707552 24.018736134675446 L 17.306200844808384 62.65576918623819 A 17.916697508022974 17.916697508022974 0 1 1 -17.306200844808384 62.65576918623819 L -8.765172356425198 30.780216918698923 L -4.901469051268926 31.815493099109005 L -6.4704761275630185 24.148145657226706 L -11.662949835292403 30.00375978339136 L -7.79924653013613 31.039035963801442 L -16.340275018519314 62.91458823134071 A 16.916697508022974 16.916697508022974 0 1 0 16.340275018519314 62.91458823134071 L 5.987513214418485 24.277555179777966 Z"/><text text-anchor="middle" pointer-events="none" font-size="8px" fill="#000000" x="0" y="94.20964923467838" font-family="sans-serif">BUSINESS…</text></g><g class="relationship" transform="translate(83.28528572578718 25.714923665136865) rotate(301.1718681240484)"><path class="outline" fill="#A5ABB6" stroke="none" d="M 6.953439040707552 24.018736134675446 L 17.306200844808384 62.65576918623819 A 17.916697508022974 17.916697508022974 0 1 1 -17.306200844808384 62.65576918623819 L -8.765172356425198 30.780216918698923 L -4.901469051268926 31.815493099109005 L -6.4704761275630185 24.148145657226706 L -11.662949835292403 30.00375978339136 L -7.79924653013613 31.039035963801442 L -16.340275018519314 62.91458823134071 A 16.916697508022974 16.916697508022974 0 1 0 16.340275018519314 62.91458823134071 L 5.987513214418485 24.277555179777966 Z"/><text text-anchor="middle" pointer-events="none" font-size="8px" fill="#000000" x="0" y="94.20964923467838" font-family="sans-serif">BUSINESS…</text></g><g class="relationship" transform="translate(83.28528572578718 25.714923665136865) rotate(306.8391161536315)"><path class="outline" fill="#A5ABB6" stroke="none" d="M 6.953439040707552 24.018736134675446 L 17.306200844808384 62.65576918623819 A 17.916697508022974 17.916697508022974 0 1 1 -17.306200844808384 62.65576918623819 L -8.765172356425198 30.780216918698923 L -4.901469051268926 31.815493099109005 L -6.4704761275630185 24.148145657226706 L -11.662949835292403 30.00375978339136 L -7.79924653013613 31.039035963801442 L -16.340275018519314 62.91458823134071 A 16.916697508022974 16.916697508022974 0 1 0 16.340275018519314 62.91458823134071 L 5.987513214418485 24.277555179777966 Z"/><text text-anchor="middle" pointer-events="none" font-size="8px" fill="#000000" x="0" y="94.20964923467838" font-family="sans-serif">BUSINESS…</text></g><g class="relationship" transform="translate(22.446419791263015 113.21404277694378) rotate(394.8112107336402)"><path class="outline" fill="#A5ABB6" stroke="none" d="M 6.953439040707552 24.018736134675446 L 17.306200844808384 62.65576918623819 A 17.916697508022974 17.916697508022974 0 1 1 -17.306200844808384 62.65576918623819 L -8.765172356425198 30.780216918698923 L -4.901469051268926 31.815493099109005 L -6.4704761275630185 24.148145657226706 L -11.662949835292403 30.00375978339136 L -7.79924653013613 31.039035963801442 L -16.340275018519314 62.91458823134071 A 16.916697508022974 16.916697508022974 0 1 0 16.340275018519314 62.91458823134071 L 5.987513214418485 24.277555179777966 Z"/><text text-anchor="middle" pointer-events="none" font-size="8px" fill="#000000" x="0" y="94.20964923467838" font-family="sans-serif">BUSINESS…</text></g><g class="relationship" transform="translate(22.446419791263015 113.21404277694378) rotate(304.8112107336402)"><path class="outline" fill="#A5ABB6" stroke="none" d="M 17.324116139070416,-18.03122292025696 L 18.031222920256962,-17.324116139070412 A 47.20997440504767 47.20997440504767 0 0 1 18.63490456729845,-17.91707315931511 L 17.940584949304622,-18.636739935030725 A 48.20997440504767 48.20997440504767 0 0 0 17.324116139070416,-18.03122292025696 Z M 81.68146998560105,-21.465811276505192 L 81.05363820602803,-20.687462218204125 A 47.20997440504767 47.20997440504767 0 0 1 81.70747815134021,-20.15031895542746 L 79.78243396916892,-17.849405029030276 L 87.39711800996218,-16.042034851427335 L 84.27420372756859,-23.218204190623705 L 82.3491595453973,-20.917290264226523 A 48.20997440504767 48.20997440504767 0 0 0 81.68146998560105,-21.465811276505192"/><text text-anchor="middle" pointer-events="none" font-size="8px" fill="#000000" x="49.29824217298185" y="-28.604674074024203" font-family="sans-serif">CHEAPEST_FL…</text></g></g><g class="layer nodes"><g class="node" transform="translate(161.62166452073444,97.51299867973846)"><circle class="outline" cx="0" cy="0" r="25" fill="#ECB5C9" stroke="#da7298" stroke-width="2px"/><text text-anchor="middle" pointer-events="none" font-family="sans-serif" dy="1.5625" font-size="25" fill="#604A0E"/><text text-anchor="middle" pointer-events="none" y="5" font-size="10px" fill="#604A0E" font-family="sans-serif"> GRR</text></g><g class="node" transform="translate(83.28528572578718,25.714923665136865)"><circle class="outline" cx="0" cy="0" r="25" fill="#ECB5C9" stroke="#da7298" stroke-width="2px"/><text text-anchor="middle" pointer-events="none" font-family="sans-serif" dy="1.5625" font-size="25" fill="#604A0E"/><text text-anchor="middle" pointer-events="none" y="5" font-size="10px" fill="#604A0E" font-family="sans-serif"> ORD</text></g><g class="node" transform="translate(22.446419791263015,113.21404277694378)"><circle class="outline" cx="0" cy="0" r="25" fill="#ECB5C9" stroke="#da7298" stroke-width="2px"/><text text-anchor="middle" pointer-events="none" font-family="sans-serif" dy="1.5625" font-size="25" fill="#604A0E"/><text text-anchor="middle" pointer-events="none" y="5" font-size="10px" fill="#604A0E" font-family="sans-serif"> MSN</text></g></g></svg>