<svg xmlns="http://www.w3.org/2000/svg" width="830.598388671875" height="191.8109588623047" viewBox="-375.6442565917969 -8.271862030029297 830.598388671875 191.8109588623047"><title>Neo4j Graph Visualization</title><desc>Created using Neo4j (http://www.neo4j.com/)</desc><g class="layer relationships"><g class="relationship" transform="translate(425.9541556866313 115.78080730442969) rotate(539.1234168726949)"><path class="outline" fill="#A5ABB6" stroke="none" d="M 24.018736134675446,-6.953439040707552 L 24.277555179777966,-5.987513214418485 A 190.49016488225453 190.49016488225453 0 0 1 59.420592717309525,-11.951331926867198 L 59.346261084243494,-12.948565504483668 A 191.49016488225453 191.49016488225453 0 0 0 24.018736134675446,-6.953439040707552 Z M 83.39165321424922,-13.226778122979908 L 83.34041499288021,-12.228091663338574 A 190.49016488225453 190.49016488225453 0 0 1 118.61203242747513,-7.078992271514208 L 117.90283054244419,-4.16402525861877 L 125.53182243840298,-5.910015708591235 L 119.55763494084972,-10.965614955374791 L 118.84843305581879,-8.050647942479353 A 191.49016488225453 191.49016488225453 0 0 0 83.39165321424922,-13.226778122979908"/><text text-anchor="middle" pointer-events="none" font-size="8px" fill="#000000" x="71.37037042165622" y="-9.965525343649347" transform="rotate(180 71.37037042165622 -12.965525343649347)" font-family="sans-serif">road</text></g><g class="relationship" transform="translate(276.14847549791966 118.07290245332675) rotate(182.15428303364877)"><path class="outline" fill="#A5ABB6" stroke="none" d="M 21.40063509461097,-12.933012701892217 L 21.90063509461097,-12.06698729810778 A 96.0264866755849 96.0264866755849 0 0 1 41.71312521678109,-20.697786872126528 L 41.41944839706263,-21.653691640165718 A 97.0264866755849 97.0264866755849 0 0 0 21.40063509461097,-12.933012701892217 Z M 94.0127156258371,-22.891700661792854 L 93.76434182586628,-21.92303639823811 A 96.0264866755849 96.0264866755849 0 0 1 113.96098899554403,-14.23402415793581 L 112.58489645832721,-11.568246723674616 L 120.41048509835628,-11.467437810140115 L 115.79577904516644,-17.78839407028407 L 114.41968650794962,-15.122616636022876 A 97.0264866755849 97.0264866755849 0 0 0 94.0127156258371,-22.891700661792854"/><text text-anchor="middle" pointer-events="none" font-size="8px" fill="#000000" x="67.64234114668385" y="-22.405365573067343" transform="rotate(180 67.64234114668385 -25.405365573067343)" font-family="sans-serif">twowheeler</text></g><g class="relationship" transform="translate(133.62398195846097 112.71155000515137) rotate(195.77116854732014)"><path class="outline" fill="#A5ABB6" stroke="none" d="M 21.40063509461097,12.933012701892217 L 21.90063509461097,12.06698729810778 A 111.59899734341789 111.59899734341789 0 0 0 49.25424349156229,23.332198000527654 L 48.99934971158305,24.299167059457616 A 112.59899734341789 112.59899734341789 0 0 1 21.40063509461097,12.933012701892217 Z M 101.72927842693954,25.42457684835739 L 101.51587382097017,24.44761294208908 A 111.59899734341789 111.59899734341789 0 0 0 129.3252190284446,14.35973984439406 L 127.9374354508755,11.700029946335725 L 135.7625060535089,11.564863146409197 L 131.1755971318701,17.90601970847184 L 129.78781355430098,15.246309810413507 A 112.59899734341789 112.59899734341789 0 0 1 101.72927842693954,25.42457684835739"/><text text-anchor="middle" pointer-events="none" font-size="8px" fill="#000000" x="75.30816039821013" y="30.492894982886313" transform="rotate(180 75.30816039821013 27.492894982886313)" font-family="sans-serif">twowheeler</text></g><g class="relationship" transform="translate(-18.357602249871313 69.78768635346981) rotate(530.7026609680963)"><path class="outline" fill="#A5ABB6" stroke="none" d="M 25 0.5 L 151.82835145316218 0.5 L 151.82835145316218 -0.5 L 25 -0.5 Z M 173.82835145316218 0.5 L 300.65670290632437 0.5 L 300.65670290632437 3.5 L 307.65670290632437 0 L 300.65670290632437 -3.5 L 300.65670290632437 -0.5 L 173.82835145316218 -0.5 Z"/><text text-anchor="middle" pointer-events="none" font-size="8px" fill="#000000" x="162.82835145316218" y="3" transform="rotate(180 162.82835145316218 0)" font-family="sans-serif">trek</text></g><g class="relationship" transform="translate(133.62398195846097 112.71155000515137) rotate(195.77116854732014)"><path class="outline" fill="#A5ABB6" stroke="none" d="M 25 0.5 L 64.46337760199748 0.5 L 64.46337760199748 -0.5 L 25 -0.5 Z M 86.46337760199748 0.5 L 125.92675520399496 0.5 L 125.92675520399496 3.5 L 132.92675520399496 0 L 125.92675520399496 -3.5 L 125.92675520399496 -0.5 L 86.46337760199748 -0.5 Z"/><text text-anchor="middle" pointer-events="none" font-size="8px" fill="#000000" x="75.46337760199748" y="3" transform="rotate(180 75.46337760199748 0)" font-family="sans-serif">trek</text></g><g class="relationship" transform="translate(133.62398195846097 112.71155000515137) rotate(195.77116854732014)"><path class="outline" fill="#A5ABB6" stroke="none" d="M 21.40063509461097,-12.933012701892217 L 21.90063509461097,-12.06698729810778 A 111.59899734341789 111.59899734341789 0 0 1 63.41150274541142,-26.099912210565492 L 63.283467266947945,-27.09168179885434 A 112.59899734341789 112.59899734341789 0 0 0 21.40063509461097,-12.933012701892217 Z M 87.33902186305549,-27.60509718323715 L 87.25341818696468,-26.60876791505332 A 111.59899734341789 111.59899734341789 0 0 1 129.3252190284446,-14.35973984439406 L 127.9374354508755,-11.700029946335725 L 135.7625060535089,-11.564863146409197 L 131.1755971318701,-17.90601970847184 L 129.78781355430098,-15.246309810413507 A 112.59899734341789 112.59899734341789 0 0 0 87.33902186305549,-27.60509718323715"/><text text-anchor="middle" pointer-events="none" font-size="8px" fill="#000000" x="75.30816039821012" y="-24.492894982886313" transform="rotate(180 75.30816039821012 -27.492894982886313)" font-family="sans-serif">road</text></g><g class="relationship" transform="translate(276.14847549791966 118.07290245332675) rotate(182.15428303364877)"><path class="outline" fill="#A5ABB6" stroke="none" d="M 25 0.5 L 56.81264852526647 0.5 L 56.81264852526647 -0.5 L 25 -0.5 Z M 78.81264852526647 0.5 L 110.62529705053294 0.5 L 110.62529705053294 3.5 L 117.62529705053294 0 L 110.62529705053294 -3.5 L 110.62529705053294 -0.5 L 78.81264852526647 -0.5 Z"/><text text-anchor="middle" pointer-events="none" font-size="8px" fill="#000000" x="67.81264852526647" y="3" transform="rotate(180 67.81264852526647 0)" font-family="sans-serif">trek</text></g><g class="relationship" transform="translate(276.14847549791966 118.07290245332675) rotate(182.15428303364877)"><path class="outline" fill="#A5ABB6" stroke="none" d="M 21.40063509461097,12.933012701892217 L 21.90063509461097,12.06698729810778 A 96.0264866755849 96.0264866755849 0 0 0 55.76773022465227,23.884411373208863 L 55.62041515880442,24.87350099067244 A 97.0264866755849 97.0264866755849 0 0 1 21.40063509461097,12.933012701892217 Z M 79.67597741962416,25.43975223666679 L 79.57536469703986,24.444826571074543 A 96.0264866755849 96.0264866755849 0 0 0 113.96098899554403,14.23402415793581 L 112.58489645832721,11.568246723674616 L 120.41048509835628,11.467437810140115 L 115.79577904516644,17.78839407028407 L 114.41968650794962,15.122616636022876 A 97.0264866755849 97.0264866755849 0 0 1 79.67597741962416,25.43975223666679"/><text text-anchor="middle" pointer-events="none" font-size="8px" fill="#000000" x="67.64234114668388" y="28.405365573067343" transform="rotate(180 67.64234114668388 25.405365573067343)" font-family="sans-serif">road</text></g><g class="relationship" transform="translate(425.9541556866313 115.78080730442969) rotate(539.1234168726949)"><path class="outline" fill="#A5ABB6" stroke="none" d="M 24.018736134675446,6.953439040707552 L 24.277555179777966,5.987513214418485 A 190.49016488225453 190.49016488225453 0 0 0 60.41540514247173,12.022864772791365 L 60.346295891494435,13.020473870298673 A 191.49016488225453 191.49016488225453 0 0 1 24.018736134675446,6.953439040707552 Z M 82.39022234328199,13.27552891231801 L 82.34421379452611,12.276587866289077 A 190.49016488225453 190.49016488225453 0 0 0 118.61203242747513,7.078992271514208 L 117.90283054244419,4.16402525861877 L 125.53182243840298,5.910015708591235 L 119.55763494084972,10.965614955374791 L 118.84843305581879,8.050647942479353 A 191.49016488225453 191.49016488225453 0 0 1 82.39022234328199,13.27552891231801"/><text text-anchor="middle" pointer-events="none" font-size="8px" fill="#000000" x="71.3703704216563" y="15.965525343649347" transform="rotate(180 71.3703704216563 12.965525343649347)" font-family="sans-serif">trek</text></g><g class="relationship" transform="translate(425.9541556866313 115.78080730442969) rotate(205.67080917600367)"><path class="outline" fill="#A5ABB6" stroke="none" d="M 21.40063509461097,12.933012701892217 L 21.90063509461097,12.06698729810778 A 173.80015096623498 173.80015096623498 0 0 0 95.1487816222556,34.814786080780976 L 95.0702320417197,35.81169628907338 A 174.80015096623498 174.80015096623498 0 0 1 21.40063509461097,12.933012701892217 Z M 117.11604322786837,36.15389801105971 L 117.0684727160343,35.155030128702975 A 173.80015096623498 173.80015096623498 0 0 0 190.98735691902692,14.69160232745585 L 189.56871638475147,12.048222098561297 L 197.3916842088268,11.82200445229553 L 192.8788776313942,18.216109299315256 L 191.46023709711875,15.572729070420703 A 174.80015096623498 174.80015096623498 0 0 1 117.11604322786837,36.15389801105971"/><text text-anchor="middle" pointer-events="none" font-size="8px" fill="#000000" x="106.09549701075706" y="38.83079804060557" transform="rotate(180 106.09549701075706 35.83079804060557)" font-family="sans-serif">trek</text></g><g class="relationship" transform="translate(228.19151560501183 20.72813778253527) rotate(528.3294121388834)"><path class="outline" fill="#A5ABB6" stroke="none" d="M 24.018736134675446,-6.953439040707552 L 24.277555179777966,-5.987513214418485 A 251.53723461695878 251.53723461695878 0 0 1 60.56864120938571,-12.902925071840343 L 60.45409935682238,-13.896343495270969 A 252.53723461695878 252.53723461695878 0 0 0 24.018736134675446,-6.953439040707552 Z M 113.4589812061593,-14.407888822473694 L 113.36363368565756,-13.412444775661328 A 251.53723461695878 251.53723461695878 0 0 1 149.78142763643496,-7.198739751693602 L 149.06104229455093,-4.286516381277345 L 156.6966797243869,-6.003211182366912 L 150.74194142561367,-11.081704245581946 L 150.02155608372965,-8.169480875165688 A 252.53723461695878 252.53723461695878 0 0 0 113.4589812061593,-14.407888822473694"/><text text-anchor="middle" pointer-events="none" font-size="8px" fill="#000000" x="86.94790673286799" y="-12.046700080100209" transform="rotate(180 86.94790673286799 -15.046700080100209)" font-family="sans-serif">twowheeler</text></g><g class="relationship" transform="translate(50.9674413190803 57.33461168595129) rotate(533.3405454004883)"><path class="outline" fill="#A5ABB6" stroke="none" d="M 24.018736134675446,-6.953439040707552 L 24.277555179777966,-5.987513214418485 A 266.1451104218867 266.1451104218867 0 0 1 79.7172055527424,-14.716428798972515 L 79.66669260909364,-15.715152205388847 A 267.1451104218867 267.1451104218867 0 0 0 24.018736134675446,-6.953439040707552 Z M 101.70074567271045,-15.919658651495922 L 101.6687788995161,-14.920169719385342 A 266.1451104218867 266.1451104218867 0 0 1 157.26089733385774,-7.221782307664761 L 156.53836008287044,-4.31009209046519 L 164.17526404915463,-6.021143758227614 L 158.22428033517417,-11.104035930597524 L 157.50174308418687,-8.192345713397952 A 267.1451104218867 267.1451104218867 0 0 0 101.70074567271045,-15.919658651495922"/><text text-anchor="middle" pointer-events="none" font-size="8px" fill="#000000" x="90.68625018924736" y="-12.544703738061628" transform="rotate(180 90.68625018924736 -15.544703738061628)" font-family="sans-serif">trek</text></g><g class="relationship" transform="translate(-136.20050061019748 79.18752540576249) rotate(528.1010293382476)"><path class="outline" fill="#A5ABB6" stroke="none" d="M 24.018736134675446,6.953439040707552 L 24.277555179777966,5.987513214418485 A 318.0882028999135 318.0882028999135 0 0 0 93.02835025189188,16.53624117108734 L 92.98566872602248,17.5353298995542 A 319.0882028999135 319.0882028999135 0 0 1 24.018736134675446,6.953439040707552 Z M 115.01508355954262,17.71525177605332 L 114.98872644771461,16.715599185071824 A 318.0882028999135 318.0882028999135 0 0 0 183.90264876258726,7.29122675337597 L 183.17362635988408,4.381153500628389 L 190.8143234194488,6.0751866891931545 L 184.87467863285818,11.171324423706078 L 184.145656230155,8.261251170958497 A 319.0882028999135 319.0882028999135 0 0 1 115.01508355954262,17.71525177605332"/><text text-anchor="middle" pointer-events="none" font-size="8px" fill="#000000" x="104.00290647031302" y="20.315480625072666" transform="rotate(180 104.00290647031302 17.315480625072666)" font-family="sans-serif">trek</text></g><g class="relationship" transform="translate(-136.20050061019748 79.18752540576249) rotate(528.1010293382476)"><path class="outline" fill="#A5ABB6" stroke="none" d="M 24.018736134675446,-6.953439040707552 L 24.277555179777966,-5.987513214418485 A 318.0882028999135 318.0882028999135 0 0 1 77.58894263487653,-15.499931208576186 L 77.49772297563325,-16.495762004327958 A 319.0882028999135 319.0882028999135 0 0 0 24.018736134675446,-6.953439040707552 Z M 130.51794307456112,-16.928796543133842 L 130.44300109066913,-15.931608647574365 A 318.0882028999135 318.0882028999135 0 0 1 183.90264876258726,-7.29122675337597 L 183.17362635988408,-4.381153500628389 L 190.8143234194488,-6.0751866891931545 L 184.87467863285818,-11.171324423706078 L 184.145656230155,-8.261251170958497 A 319.0882028999135 319.0882028999135 0 0 0 130.51794307456112,-16.928796543133842"/><text text-anchor="middle" pointer-events="none" font-size="8px" fill="#000000" x="104.00290647031304" y="-14.315480625072666" transform="rotate(180 104.00290647031304 -17.315480625072666)" font-family="sans-serif">twowheeler</text></g><g class="relationship" transform="translate(50.9674413190803 57.33461168595129) rotate(533.3405454004883)"><path class="outline" fill="#A5ABB6" stroke="none" d="M 24.018736134675446,6.953439040707552 L 24.277555179777966,5.987513214418485 A 266.1451104218867 266.1451104218867 0 0 0 64.29742805583066,13.486426437482294 L 64.18897763036055,14.48052829605382 A 267.1451104218867 267.1451104218867 0 0 1 24.018736134675446,6.953439040707552 Z M 117.19871031165636,14.972531832962602 L 117.10873025641291,13.976588265455689 A 266.1451104218867 266.1451104218867 0 0 0 157.26089733385774,7.221782307664761 L 156.53836008287044,4.31009209046519 L 164.17526404915463,6.021143758227614 L 158.22428033517417,11.104035930597524 L 157.50174308418687,8.192345713397952 A 267.1451104218867 267.1451104218867 0 0 1 117.19871031165636,14.972531832962602"/><text text-anchor="middle" pointer-events="none" font-size="8px" fill="#000000" x="90.6862501892474" y="18.544703738061628" transform="rotate(180 90.6862501892474 15.544703738061628)" font-family="sans-serif">twowheeler</text></g><g class="relationship" transform="translate(228.19151560501183 20.72813778253527) rotate(528.7460030821771)"><path class="outline" fill="#A5ABB6" stroke="none" d="M 25 0.5 L 111.19139471440054 0.5 L 111.19139471440054 -0.5 L 25 -0.5 Z M 133.19139471440053 0.5 L 219.3827894288011 0.5 L 219.3827894288011 3.5 L 226.3827894288011 0 L 219.3827894288011 -3.5 L 219.3827894288011 -0.5 L 133.19139471440053 -0.5 Z"/><text text-anchor="middle" pointer-events="none" font-size="8px" fill="#000000" x="122.19139471440054" y="3" transform="rotate(180 122.19139471440054 0)" font-family="sans-serif">trek</text></g><g class="relationship" transform="translate(228.19151560501183 20.72813778253527) rotate(528.3294121388834)"><path class="outline" fill="#A5ABB6" stroke="none" d="M 24.018736134675446,6.953439040707552 L 24.277555179777966,5.987513214418485 A 251.53723461695878 251.53723461695878 0 0 0 75.98086168940294,14.201294015535922 L 75.92759196024308,15.199874175540742 A 252.53723461695878 252.53723461695878 0 0 1 24.018736134675446,6.953439040707552 Z M 97.96321256780026,15.412537959715308 L 97.92922537961492,14.413115691082453 A 251.53723461695878 251.53723461695878 0 0 0 149.78142763643496,7.198739751693602 L 149.06104229455093,4.286516381277345 L 156.6966797243869,6.003211182366912 L 150.74194142561367,11.081704245581946 L 150.02155608372965,8.169480875165688 A 252.53723461695878 252.53723461695878 0 0 1 97.96321256780026,15.412537959715308"/><text text-anchor="middle" pointer-events="none" font-size="8px" fill="#000000" x="86.94790673286812" y="18.04670008010021" transform="rotate(180 86.94790673286812 15.046700080100209)" font-family="sans-serif">trek</text></g><g class="relationship" transform="translate(425.9541556866313 115.78080730442969) rotate(205.67080917600367)"><path class="outline" fill="#A5ABB6" stroke="none" d="M 25 0.5 L 73.20992639147406 0.5 L 73.20992639147406 -0.5 L 25 -0.5 Z M 139.20992639147406 0.5 L 187.4198527829481 0.5 L 187.4198527829481 3.5 L 194.4198527829481 0 L 187.4198527829481 -3.5 L 187.4198527829481 -0.5 L 139.20992639147406 -0.5 Z"/><text text-anchor="middle" pointer-events="none" font-size="8px" fill="#000000" x="106.20992639147406" y="3" transform="rotate(180 106.20992639147406 0)" font-family="sans-serif">PublicTransport</text></g><g class="relationship" transform="translate(425.9541556866313 115.78080730442969) rotate(205.67080917600367)"><path class="outline" fill="#A5ABB6" stroke="none" d="M 21.40063509461097,-12.933012701892217 L 21.90063509461097,-12.06698729810778 A 173.80015096623498 173.80015096623498 0 0 1 94.15496130019774,-34.733610718348814 L 94.07069354095756,-35.7300538651227 A 174.80015096623498 174.80015096623498 0 0 0 21.40063509461097,-12.933012701892217 Z M 118.11763412943426,-36.103317720482636 L 118.06433369748265,-35.10473919880607 A 173.80015096623498 173.80015096623498 0 0 1 190.98735691902692,-14.69160232745585 L 189.56871638475147,-12.048222098561297 L 197.3916842088268,-11.82200445229553 L 192.8788776313942,-18.216109299315256 L 191.46023709711875,-15.572729070420703 A 174.80015096623498 174.80015096623498 0 0 0 118.11763412943426,-36.103317720482636"/><text text-anchor="middle" pointer-events="none" font-size="8px" fill="#000000" x="106.09549701075707" y="-32.83079804060557" transform="rotate(180 106.09549701075707 -35.83079804060557)" font-family="sans-serif">road</text></g><g class="relationship" transform="translate(228.19151560501183 20.72813778253527) rotate(423.7728083282891)"><path class="outline" fill="#A5ABB6" stroke="none" d="M 25 0.5 L 39.758347770139814 0.5 L 39.758347770139814 -0.5 L 25 -0.5 Z M 61.758347770139814 0.5 L 76.51669554027963 0.5 L 76.51669554027963 3.5 L 83.51669554027963 0 L 76.51669554027963 -3.5 L 76.51669554027963 -0.5 L 61.758347770139814 -0.5 Z"/><text text-anchor="middle" pointer-events="none" font-size="8px" fill="#000000" x="50.758347770139814" y="3" font-family="sans-serif">trek</text></g><g class="relationship" transform="translate(50.9674413190803 57.33461168595129) rotate(499.2910407837012)"><path class="outline" fill="#A5ABB6" stroke="none" d="M 24.018736134675446,-6.953439040707552 L 24.277555179777966,-5.987513214418485 A 165.7452330333313 165.7452330333313 0 0 1 38.81066539655278,-9.189985525299193 L 38.639529779509104,-10.175233007193498 A 166.7452330333313 166.7452330333313 0 0 0 24.018736134675446,-6.953439040707552 Z M 91.56990651412264,-10.84108506640382 L 91.42360950792585,-9.85184435455568 A 165.7452330333313 165.7452330333313 0 0 1 106.03268069688538,-7.015974034742925 L 105.32936449535134,-4.099581345021644 L 112.95481633982405,-5.860968346117035 L 106.9704356322641,-10.904497621037965 L 106.26711943073006,-7.988104931316684 A 166.7452330333313 166.7452330333313 0 0 0 91.56990651412264,-10.84108506640382"/><text text-anchor="middle" pointer-events="none" font-size="8px" fill="#000000" x="65.08441649106334" y="-9.12199242884779" transform="rotate(180 65.08441649106334 -12.12199242884779)" font-family="sans-serif">twowheeler</text></g><g class="relationship" transform="translate(-53.07863159015548 146.85666282762847) rotate(219.1488793802181)"><path class="outline" fill="#A5ABB6" stroke="none" d="M 21.40063509461097,12.933012701892217 L 21.90063509461097,12.06698729810778 A 59.6599054449688 59.6599054449688 0 0 0 38.10828325513955,18.483873769872282 L 37.87995060089957,19.457456945059548 A 60.6599054449688 60.6599054449688 0 0 1 21.40063509461097,12.933012701892217 Z M 61.90779177548861,20.20006590455607 L 61.74001696799858,19.21424055796993 A 59.6599054449688 59.6599054449688 0 0 0 78.31299631206898,13.810478299319412 L 76.97629916362175,11.124730594613503 L 84.8025238144573,11.139142903726874 L 80.09525917666528,17.391475238927292 L 78.75856202821805,14.705727534221383 A 60.6599054449688 60.6599054449688 0 0 1 61.90779177548861,20.20006590455607"/><text text-anchor="middle" pointer-events="none" font-size="8px" fill="#000000" x="49.872161877441826" y="23.531187464912314" transform="rotate(180 49.872161877441826 20.531187464912314)" font-family="sans-serif">road</text></g><g class="relationship" transform="translate(-53.07863159015548 146.85666282762847) rotate(219.1488793802181)"><path class="outline" fill="#A5ABB6" stroke="none" d="M 25 0.5 L 39.09187734350328 0.5 L 39.09187734350328 -0.5 L 25 -0.5 Z M 61.09187734350328 0.5 L 75.18375468700656 0.5 L 75.18375468700656 3.5 L 82.18375468700656 0 L 75.18375468700656 -3.5 L 75.18375468700656 -0.5 L 61.09187734350328 -0.5 Z"/><text text-anchor="middle" pointer-events="none" font-size="8px" fill="#000000" x="50.09187734350328" y="3" transform="rotate(180 50.09187734350328 0)" font-family="sans-serif">trek</text></g><g class="relationship" transform="translate(-53.07863159015548 146.85666282762847) rotate(219.1488793802181)"><path class="outline" fill="#A5ABB6" stroke="none" d="M 21.40063509461097,-12.933012701892217 L 21.90063509461097,-12.06698729810778 A 59.6599054449688 59.6599054449688 0 0 1 24.637575297556065,-13.553290673919491 L 24.183451002227933,-14.444229013195965 A 60.6599054449688 60.6599054449688 0 0 0 21.40063509461097,-12.933012701892217 Z M 75.88773456914613,-16.042211284768015 L 75.48949545922918,-15.124929642450589 A 59.6599054449688 59.6599054449688 0 0 1 78.31299631206898,-13.810478299319412 L 76.97629916362175,-11.124730594613503 L 84.8025238144573,-11.139142903726874 L 80.09525917666528,-17.391475238927292 L 78.75856202821805,-14.705727534221383 A 60.6599054449688 60.6599054449688 0 0 0 75.88773456914613,-16.042211284768015"/><text text-anchor="middle" pointer-events="none" font-size="8px" fill="#000000" x="49.872161877441826" y="-17.531187464912314" transform="rotate(180 49.872161877441826 -20.531187464912314)" font-family="sans-serif">twowheeler</text></g><g class="relationship" transform="translate(50.9674413190803 57.33461168595129) rotate(499.2910407837012)"><path class="outline" fill="#A5ABB6" stroke="none" d="M 24.018736134675446,6.953439040707552 L 24.277555179777966,5.987513214418485 A 165.7452330333313 165.7452330333313 0 0 0 54.13721944618436,11.121517604230746 L 54.05855438632738,12.118418706827043 A 166.7452330333313 166.7452330333313 0 0 1 24.018736134675446,6.953439040707552 Z M 76.10687934708398,12.39578160282278 L 76.05331678903748,11.397217106971112 A 165.7452330333313 165.7452330333313 0 0 0 106.03268069688538,7.015974034742925 L 105.32936449535134,4.099581345021644 L 112.95481633982405,5.860968346117035 L 106.9704356322641,10.904497621037965 L 106.26711943073006,7.988104931316684 A 166.7452330333313 166.7452330333313 0 0 1 76.10687934708398,12.39578160282278"/><text text-anchor="middle" pointer-events="none" font-size="8px" fill="#000000" x="65.08441649106332" y="15.12199242884779" transform="rotate(180 65.08441649106332 12.12199242884779)" font-family="sans-serif">trek</text></g><g class="relationship" transform="translate(-53.07863159015548 146.85666282762847) rotate(536.971110422421)"><path class="outline" fill="#A5ABB6" stroke="none" d="M 25 0.5 L 58.1959207416823 0.5 L 58.1959207416823 -0.5 L 25 -0.5 Z M 80.1959207416823 0.5 L 113.3918414833646 0.5 L 113.3918414833646 3.5 L 120.3918414833646 0 L 113.3918414833646 -3.5 L 113.3918414833646 -0.5 L 80.1959207416823 -0.5 Z"/><text text-anchor="middle" pointer-events="none" font-size="8px" fill="#000000" x="69.1959207416823" y="3" transform="rotate(180 69.1959207416823 0)" font-family="sans-serif">trek</text></g><g class="relationship" transform="translate(-198.26736344325678 154.53909166309853) rotate(191.8038876363035)"><path class="outline" fill="#A5ABB6" stroke="none" d="M 25 0.5 L 61.29116912612163 0.5 L 61.29116912612163 -0.5 L 25 -0.5 Z M 83.29116912612163 0.5 L 119.58233825224326 0.5 L 119.58233825224326 3.5 L 126.58233825224326 0 L 119.58233825224326 -3.5 L 119.58233825224326 -0.5 L 83.29116912612163 -0.5 Z"/><text text-anchor="middle" pointer-events="none" font-size="8px" fill="#000000" x="72.29116912612163" y="3" transform="rotate(180 72.29116912612163 0)" font-family="sans-serif">trek</text></g></g><g class="layer nodes"><g class="node" transform="translate(425.9541556866313,115.78080730442969)"><circle class="outline" cx="0" cy="0" r="25" fill="#F79767" stroke="#f36924" stroke-width="2px"/><text text-anchor="middle" pointer-events="none" font-family="sans-serif" dy="1.5625" font-size="25" fill="#FFFFFF"/><text text-anchor="middle" pointer-events="none" y="5" font-size="10px" fill="#FFFFFF" font-family="sans-serif"> Darjeel…</text></g><g class="node" transform="translate(276.14847549791966,118.07290245332675)"><circle class="outline" cx="0" cy="0" r="25" fill="#57C7E3" stroke="#23b3d7" stroke-width="2px"/><text text-anchor="middle" pointer-events="none" font-family="sans-serif" dy="1.5625" font-size="25" fill="#FFFFFF"/><text text-anchor="middle" pointer-events="none" y="5" font-size="10px" fill="#FFFFFF" font-family="sans-serif"> Tumbling</text></g><g class="node" transform="translate(133.62398195846097,112.71155000515137)"><circle class="outline" cx="0" cy="0" r="25" fill="#57C7E3" stroke="#23b3d7" stroke-width="2px"/><text text-anchor="middle" pointer-events="none" font-family="sans-serif" dy="1.5625" font-size="25" fill="#FFFFFF"/><text text-anchor="middle" pointer-events="none" y="5" font-size="10px" fill="#FFFFFF" font-family="sans-serif"> Gairibus</text></g><g class="node" transform="translate(-18.357602249871313,69.78768635346981)"><circle class="outline" cx="0" cy="0" r="25" fill="#57C7E3" stroke="#23b3d7" stroke-width="2px"/><text text-anchor="middle" pointer-events="none" font-family="sans-serif" dy="1.5625" font-size="25" fill="#FFFFFF"/><text text-anchor="middle" pointer-events="none" y="5" font-size="10px" fill="#FFFFFF" font-family="sans-serif"> BhikeB…</text></g><g class="node" transform="translate(-346.64426745180185,123.53103421255048)"><circle class="outline" cx="0" cy="0" r="25" fill="#F16667" stroke="#eb2728" stroke-width="2px"/><text text-anchor="middle" pointer-events="none" font-family="sans-serif" dy="1.5625" font-size="25" fill="#FFFFFF"/><text text-anchor="middle" pointer-events="none" y="5" font-size="10px" fill="#FFFFFF" font-family="sans-serif"> Sandak…</text></g><g class="node" transform="translate(228.19151560501183,20.72813778253527)"><circle class="outline" cx="0" cy="0" r="25" fill="#F79767" stroke="#f36924" stroke-width="2px"/><text text-anchor="middle" pointer-events="none" font-family="sans-serif" dy="1.5625" font-size="25" fill="#FFFFFF"/><text text-anchor="middle" pointer-events="none" y="5" font-size="10px" fill="#FFFFFF" font-family="sans-serif"> Rimbik</text></g><g class="node" transform="translate(50.9674413190803,57.33461168595129)"><circle class="outline" cx="0" cy="0" r="25" fill="#57C7E3" stroke="#23b3d7" stroke-width="2px"/><text text-anchor="middle" pointer-events="none" font-family="sans-serif" dy="1.5625" font-size="25" fill="#FFFFFF"/><text text-anchor="middle" pointer-events="none" y="5" font-size="10px" fill="#FFFFFF" font-family="sans-serif"> Sirikhola</text></g><g class="node" transform="translate(-136.20050061019748,79.18752540576249)"><circle class="outline" cx="0" cy="0" r="25" fill="#57C7E3" stroke="#23b3d7" stroke-width="2px"/><text text-anchor="middle" pointer-events="none" font-family="sans-serif" dy="1.5625" font-size="25" fill="#FFFFFF"/><text text-anchor="middle" pointer-events="none" y="5" font-size="10px" fill="#FFFFFF" font-family="sans-serif"> Gurdum</text></g><g class="node" transform="translate(-53.07863159015548,146.85666282762847)"><circle class="outline" cx="0" cy="0" r="25" fill="#57C7E3" stroke="#23b3d7" stroke-width="2px"/><text text-anchor="middle" pointer-events="none" font-family="sans-serif" dy="1.5625" font-size="25" fill="#FFFFFF"/><text text-anchor="middle" pointer-events="none" y="5" font-size="10px" fill="#FFFFFF" font-family="sans-serif"> Ramm…</text></g><g class="node" transform="translate(-198.26736344325678,154.53909166309853)"><circle class="outline" cx="0" cy="0" r="25" fill="#F16667" stroke="#eb2728" stroke-width="2px"/><text text-anchor="middle" pointer-events="none" font-family="sans-serif" dy="1.5625" font-size="25" fill="#FFFFFF"/><text text-anchor="middle" pointer-events="none" y="5" font-size="10px" fill="#FFFFFF" font-family="sans-serif"> Sabargr…</text></g></g></svg>