<svg xmlns="http://www.w3.org/2000/svg" width="429.215087890625" height="75.13140869140625" viewBox="-227.44863891601562 68.70254516601562 429.215087890625 75.13140869140625"><title>Neo4j Graph Visualization</title><desc>Created using Neo4j (http://www.neo4j.com/)</desc><g class="layer relationships"><g class="relationship" transform="translate(172.76648086030423 97.70254743644149) rotate(539.6126868363037)"><path class="outline" fill="#A5ABB6" stroke="none" d="M 21.40063509461097,12.933012701892217 L 21.90063509461097,12.06698729810778 A 58.613422404392566 58.613422404392566 0 0 0 37.60670638979212,18.319920930438343 L 37.37466670759817,19.292627250910932 A 59.613422404392566 59.613422404392566 0 0 1 21.40063509461097,12.933012701892217 Z M 61.400099633632095,20.041850681520415 L 61.22911878861902,19.056576328541198 A 58.613422404392566 58.613422404392566 0 0 0 77.29428364609245,13.794415874711913 L 75.95908073799558,11.10792500478333 L 83.78529616060862,11.126690900807297 L 79.07455419022162,17.37640370128336 L 77.73935128212474,14.689912831354775 A 59.613422404392566 59.613422404392566 0 0 1 61.400099633632095,20.041850681520415"/><text text-anchor="middle" pointer-events="none" font-size="8px" fill="#000000" x="49.36481376811172" y="23.39097456213173" transform="rotate(180 49.36481376811172 20.39097456213173)" font-family="sans-serif">road</text></g><g class="relationship" transform="translate(66.59618661464253 98.42025787296404) rotate(535.8034999812048)"><path class="outline" fill="#A5ABB6" stroke="none" d="M 25 0.5 L 42.836804224047206 0.5 L 42.836804224047206 -0.5 L 25 -0.5 Z M 64.8368042240472 0.5 L 82.67360844809441 0.5 L 82.67360844809441 3.5 L 89.67360844809441 0 L 82.67360844809441 -3.5 L 82.67360844809441 -0.5 L 64.8368042240472 -0.5 Z"/><text text-anchor="middle" pointer-events="none" font-size="8px" fill="#000000" x="53.836804224047206" y="3" transform="rotate(180 53.836804224047206 0)" font-family="sans-serif">trek</text></g><g class="relationship" transform="translate(-47.76997606453463 106.8117600356792) rotate(536.9524280021577)"><path class="outline" fill="#A5ABB6" stroke="none" d="M 25 0.5 L 60.9460354541353 0.5 L 60.9460354541353 -0.5 L 25 -0.5 Z M 82.9460354541353 0.5 L 118.8920709082706 0.5 L 118.8920709082706 3.5 L 125.8920709082706 0 L 118.8920709082706 -3.5 L 118.8920709082706 -0.5 L 82.9460354541353 -0.5 Z"/><text text-anchor="middle" pointer-events="none" font-size="8px" fill="#000000" x="71.9460354541353" y="3" transform="rotate(180 71.9460354541353 0)" font-family="sans-serif">trek</text></g><g class="relationship" transform="translate(172.76648086030423 97.70254743644149) rotate(539.6126868363037)"><path class="outline" fill="#A5ABB6" stroke="none" d="M 25 0.5 L 25.086360038340068 0.5 L 25.086360038340068 -0.5 L 25 -0.5 Z M 74.08636003834008 0.5 L 74.17272007668014 0.5 L 74.17272007668014 3.5 L 81.17272007668014 0 L 74.17272007668014 -3.5 L 74.17272007668014 -0.5 L 74.08636003834008 -0.5 Z"/><text text-anchor="middle" pointer-events="none" font-size="8px" fill="#000000" x="49.58636003834007" y="3" transform="rotate(180 49.58636003834007 0)" font-family="sans-serif">PublicTra…</text></g><g class="relationship" transform="translate(172.76648086030423 97.70254743644149) rotate(539.6126868363037)"><path class="outline" fill="#A5ABB6" stroke="none" d="M 21.40063509461097,-12.933012701892217 L 21.90063509461097,-12.06698729810778 A 58.613422404392566 58.613422404392566 0 0 1 38.57308527006882,-18.54182930189328 L 38.3575329186028,-19.51832158746315 A 59.613422404392566 59.613422404392566 0 0 0 21.40063509461097,-12.933012701892217 Z M 60.405080501082146,-20.2058654617869 L 60.25079084896519,-19.217839802580805 A 58.613422404392566 58.613422404392566 0 0 1 77.29428364609245,-13.794415874711913 L 75.95908073799558,-11.10792500478333 L 83.78529616060862,-11.126690900807297 L 79.07455419022162,-17.37640370128336 L 77.73935128212474,-14.689912831354775 A 59.613422404392566 59.613422404392566 0 0 0 60.405080501082146,-20.2058654617869"/><text text-anchor="middle" pointer-events="none" font-size="8px" fill="#000000" x="49.36481376811172" y="-17.39097456213173" transform="rotate(180 49.36481376811172 -20.39097456213173)" font-family="sans-serif">trek</text></g></g><g class="layer nodes"><g class="node" transform="translate(172.76648086030423,97.70254743644149)"><circle class="outline" cx="0" cy="0" r="25" fill="#F16667" stroke="#eb2728" stroke-width="2px"/><text text-anchor="middle" pointer-events="none" font-family="sans-serif" dy="1.5625" font-size="25" fill="#FFFFFF"/><text text-anchor="middle" pointer-events="none" y="5" font-size="10px" fill="#FFFFFF" font-family="sans-serif"> Darjeel…</text></g><g class="node" transform="translate(66.59618661464253,98.42025787296404)"><circle class="outline" cx="0" cy="0" r="25" fill="#F16667" stroke="#eb2728" stroke-width="2px"/><text text-anchor="middle" pointer-events="none" font-family="sans-serif" dy="1.5625" font-size="25" fill="#FFFFFF"/><text text-anchor="middle" pointer-events="none" y="5" font-size="10px" fill="#FFFFFF" font-family="sans-serif"> Rimbik</text></g><g class="node" transform="translate(-47.76997606453463,106.8117600356792)"><circle class="outline" cx="0" cy="0" r="25" fill="#D9C8AE" stroke="#c0a378" stroke-width="2px"/><text text-anchor="middle" pointer-events="none" font-family="sans-serif" dy="1.5625" font-size="25" fill="#604A0E"/><text text-anchor="middle" pointer-events="none" y="5" font-size="10px" fill="#604A0E" font-family="sans-serif"> BhikeB…</text></g><g class="node" transform="translate(-198.44864584360823,114.83395029741293)"><circle class="outline" cx="0" cy="0" r="25" fill="#8DCC93" stroke="#5db665" stroke-width="2px"/><text text-anchor="middle" pointer-events="none" font-family="sans-serif" dy="1.5625" font-size="25" fill="#604A0E"/><text text-anchor="middle" pointer-events="none" y="5" font-size="10px" fill="#604A0E" font-family="sans-serif"> Sandak…</text></g></g></svg>