<svg xmlns="http://www.w3.org/2000/svg" width="551.4657592773438" height="297.93121337890625" viewBox="-238.5079803466797 -44.41740036010742 551.4657592773438 297.93121337890625"><title>Neo4j Graph Visualization</title><desc>Created using Neo4j (http://www.neo4j.com/)</desc><g class="layer relationships"><g class="relationship" transform="translate(283.95777737875005 142.14391888169695) rotate(196.92751053454447)"><path class="outline" fill="#A5ABB6" stroke="none" d="M 21.40063509461097,12.933012701892217 L 21.90063509461097,12.06698729810778 A 103.87954999234753 103.87954999234753 0 0 0 59.61837556892055,25.0060411553862 L 59.481466672771965,25.996624798576107 A 104.87954999234753 104.87954999234753 0 0 1 21.40063509461097,12.933012701892217 Z M 83.53732268369842,26.534969249177124 L 83.44486507310016,25.53925262772178 A 103.87954999234753 103.87954999234753 0 0 0 121.70367971959166,14.300473198694334 L 120.32140756980858,11.637894804743448 L 128.1467413304409,11.518934581525638 L 123.54670925263575,17.85057772396218 L 122.16443710285267,15.187999330011294 A 104.87954999234753 104.87954999234753 0 0 1 83.53732268369842,26.534969249177124"/><text text-anchor="middle" pointer-events="none" font-size="8px" fill="#000000" x="71.50509158178457" y="29.45808036310636" transform="rotate(180 71.50509158178457 26.45808036310636)" font-family="sans-serif">road</text></g><g class="relationship" transform="translate(283.95777737875005 142.14391888169695) rotate(196.92751053454447)"><path class="outline" fill="#A5ABB6" stroke="none" d="M 25 0.5 L 38.667447306682476 0.5 L 38.667447306682476 -0.5 L 25 -0.5 Z M 104.66744730668248 0.5 L 118.33489461336495 0.5 L 118.33489461336495 3.5 L 125.33489461336495 0 L 118.33489461336495 -3.5 L 118.33489461336495 -0.5 L 104.66744730668248 -0.5 Z"/><text text-anchor="middle" pointer-events="none" font-size="8px" fill="#000000" x="71.66744730668248" y="3" transform="rotate(180 71.66744730668248 0)" font-family="sans-serif">PublicTransport</text></g><g class="relationship" transform="translate(283.95777737875005 142.14391888169695) rotate(243.06685144654745)"><path class="outline" fill="#A5ABB6" stroke="none" d="M 24.018736134675446,-6.953439040707552 L 24.277555179777966,-5.987513214418485 A 127.92232657239182 127.92232657239182 0 0 1 43.604533137517436,-9.601802814003392 L 43.496797788870374,-10.595982422852757 A 128.92232657239182 128.92232657239182 0 0 0 24.018736134675446,-6.953439040707552 Z M 67.55266321009167,-10.94489297860926 L 67.47380663117438,-9.948007007215608 A 127.92232657239182 127.92232657239182 0 0 1 86.89747716911931,-6.895763713835308 L 86.20538873461415,-3.97668618851602 L 93.82400613394852,-5.76740362087645 L 87.82026174845954,-10.787867080927692 L 87.12817331395438,-7.868789555608403 A 128.92232657239182 128.92232657239182 0 0 0 67.55266321009167,-10.94489297860926"/><text text-anchor="middle" pointer-events="none" font-size="8px" fill="#000000" x="55.52382519156796" y="-7.832854744188012" transform="rotate(180 55.52382519156796 -10.832854744188012)" font-family="sans-serif">road</text></g><g class="relationship" transform="translate(283.95777737875005 142.14391888169695) rotate(243.06685144654745)"><path class="outline" fill="#A5ABB6" stroke="none" d="M 24.018736134675446,6.953439040707552 L 24.277555179777966,5.987513214418485 A 127.92232657239182 127.92232657239182 0 0 0 44.59524981774697,9.705261967892795 L 44.4952591428154,10.700250342159933 A 128.92232657239182 128.92232657239182 0 0 1 24.018736134675446,6.953439040707552 Z M 66.55159785800457,11.020159406511482 L 66.48050615099662,10.022689622911642 A 127.92232657239182 127.92232657239182 0 0 0 86.89747716911931,6.895763713835308 L 86.20538873461415,3.97668618851602 L 93.82400613394852,5.76740362087645 L 87.82026174845954,10.787867080927692 L 87.12817331395438,7.868789555608403 A 128.92232657239182 128.92232657239182 0 0 1 66.55159785800457,11.020159406511482"/><text text-anchor="middle" pointer-events="none" font-size="8px" fill="#000000" x="55.52382519156795" y="13.832854744188012" transform="rotate(180 55.52382519156795 10.832854744188012)" font-family="sans-serif">trek</text></g><g class="relationship" transform="translate(283.95777737875005 142.14391888169695) rotate(196.92751053454447)"><path class="outline" fill="#A5ABB6" stroke="none" d="M 21.40063509461097,-12.933012701892217 L 21.90063509461097,-12.06698729810778 A 103.87954999234753 103.87954999234753 0 0 1 60.604851703280715,-25.137569806967562 L 60.477439152990705,-26.129419615168686 A 104.87954999234753 104.87954999234753 0 0 0 21.40063509461097,-12.933012701892217 Z M 82.53640666542138,-26.62307582681676 L 82.45349253606756,-25.626519131413275 A 103.87954999234753 103.87954999234753 0 0 1 121.70367971959166,-14.300473198694334 L 120.32140756980858,-11.637894804743448 L 128.1467413304409,-11.518934581525638 L 123.54670925263575,-17.85057772396218 L 122.16443710285267,-15.187999330011294 A 104.87954999234753 104.87954999234753 0 0 0 82.53640666542138,-26.62307582681676"/><text text-anchor="middle" pointer-events="none" font-size="8px" fill="#000000" x="71.50509158178457" y="-23.45808036310636" transform="rotate(180 71.50509158178457 -26.45808036310636)" font-family="sans-serif">trek</text></g><g class="relationship" transform="translate(117.03822916687244 -15.417399654510456) rotate(519.2938675039327)"><path class="outline" fill="#A5ABB6" stroke="none" d="M 21.40063509461097,12.933012701892217 L 21.90063509461097,12.06698729810778 A 86.54835587194489 86.54835587194489 0 0 0 51.13357531841177,22.51567794042515 L 50.97133956510703,23.502429966189297 A 87.54835587194489 87.54835587194489 0 0 1 21.40063509461097,12.933012701892217 Z M 75.02523455804513,24.10634782727567 L 74.91272049162599,23.11269769525846 A 86.54835587194489 86.54835587194489 0 0 0 104.63316687884708,14.144141690444837 L 103.26543365789558,11.47406569221826 L 111.09129974486767,11.397776841262454 L 106.45681117344907,17.70424302141361 L 105.08907795249758,15.034167023187031 A 87.54835587194489 87.54835587194489 0 0 1 75.02523455804513,24.10634782727567"/><text text-anchor="middle" pointer-events="none" font-size="8px" fill="#000000" x="62.98999032951223" y="27.134845627204655" transform="rotate(180 62.98999032951223 24.134845627204655)" font-family="sans-serif">road</text></g><g class="relationship" transform="translate(117.03822916687244 -15.417399654510456) rotate(519.2938675039327)"><path class="outline" fill="#A5ABB6" stroke="none" d="M 25 0.5 L 36.67096653171127 0.5 L 36.67096653171127 -0.5 L 25 -0.5 Z M 89.67096653171127 0.5 L 101.34193306342254 0.5 L 101.34193306342254 3.5 L 108.34193306342254 0 L 101.34193306342254 -3.5 L 101.34193306342254 -0.5 L 89.67096653171127 -0.5 Z"/><text text-anchor="middle" pointer-events="none" font-size="8px" fill="#000000" x="63.17096653171127" y="3" transform="rotate(180 63.17096653171127 0)" font-family="sans-serif">twowheeler</text></g><g class="relationship" transform="translate(117.03822916687244 -15.417399654510456) rotate(519.2938675039327)"><path class="outline" fill="#A5ABB6" stroke="none" d="M 21.40063509461097,-12.933012701892217 L 21.90063509461097,-12.06698729810778 A 86.54835587194489 86.54835587194489 0 0 1 52.11556443544615,-22.67134305368245 L 51.96467481468363,-23.659893670669845 A 87.54835587194489 87.54835587194489 0 0 0 21.40063509461097,-12.933012701892217 Z M 74.02524896792406,-24.213765497285607 L 73.9241569959596,-23.218888412815204 A 86.54835587194489 86.54835587194489 0 0 1 104.63316687884708,-14.144141690444837 L 103.26543365789558,-11.47406569221826 L 111.09129974486767,-11.397776841262454 L 106.45681117344907,-17.70424302141361 L 105.08907795249758,-15.034167023187031 A 87.54835587194489 87.54835587194489 0 0 0 74.02524896792406,-24.213765497285607"/><text text-anchor="middle" pointer-events="none" font-size="8px" fill="#000000" x="62.98999032951223" y="-21.134845627204655" transform="rotate(180 62.98999032951223 -24.134845627204655)" font-family="sans-serif">trek</text></g><g class="relationship" transform="translate(230.44182339301597 36.80929504487695) rotate(204.7278792994303)"><path class="outline" fill="#A5ABB6" stroke="none" d="M 21.40063509461097,-12.933012701892217 L 21.90063509461097,-12.06698729810778 A 77.85486763078423 77.85486763078423 0 0 1 47.877776864332304,-21.412938029866652 L 47.71143797712123,-22.39900667585505 A 78.85486763078423 78.85486763078423 0 0 0 21.40063509461097,-12.933012701892217 Z M 69.77128854385651,-22.98877871837523 L 69.65787487768023,-21.995230863300065 A 77.85486763078423 77.85486763078423 0 0 1 96.09728076525184,-14.050641137146282 L 94.7382438959385,-11.376128323969466 L 102.56431680754997,-11.325307244277933 L 97.9093299243363,-17.61665822138204 L 96.55029305502296,-14.94214540820522 A 78.85486763078423 78.85486763078423 0 0 0 69.77128854385651,-22.98877871837523"/><text text-anchor="middle" pointer-events="none" font-size="8px" fill="#000000" x="58.73399289398168" y="-19.969574099502495" transform="rotate(180 58.73399289398168 -22.969574099502495)" font-family="sans-serif">trek</text></g><g class="relationship" transform="translate(230.44182339301597 36.80929504487695) rotate(204.7278792994303)"><path class="outline" fill="#A5ABB6" stroke="none" d="M 25 0.5 L 46.925961792011734 0.5 L 46.925961792011734 -0.5 L 25 -0.5 Z M 70.92596179201173 0.5 L 92.85192358402347 0.5 L 92.85192358402347 3.5 L 99.85192358402347 0 L 92.85192358402347 -3.5 L 92.85192358402347 -0.5 L 70.92596179201173 -0.5 Z"/><text text-anchor="middle" pointer-events="none" font-size="8px" fill="#000000" x="58.925961792011734" y="3" transform="rotate(180 58.925961792011734 0)" font-family="sans-serif">road</text></g><g class="relationship" transform="translate(230.44182339301597 36.80929504487695) rotate(204.7278792994303)"><path class="outline" fill="#A5ABB6" stroke="none" d="M 21.40063509461097,12.933012701892217 L 21.90063509461097,12.06698729810778 A 77.85486763078423 77.85486763078423 0 0 0 33.04265655740676,17.37062049241932 L 32.68576927215229,18.3047679463171 A 78.85486763078423 78.85486763078423 0 0 1 21.40063509461097,12.933012701892217 Z M 84.99425624869593,19.7032399401309 L 84.68779213221495,18.75135772824251 A 77.85486763078423 77.85486763078423 0 0 0 96.09728076525184,14.050641137146282 L 94.7382438959385,11.376128323969466 L 102.56431680754997,11.325307244277933 L 97.9093299243363,17.61665822138204 L 96.55029305502296,14.94214540820522 A 78.85486763078423 78.85486763078423 0 0 1 84.99425624869593,19.7032399401309"/><text text-anchor="middle" pointer-events="none" font-size="8px" fill="#000000" x="58.73399289398167" y="25.969574099502495" transform="rotate(180 58.73399289398167 22.969574099502495)" font-family="sans-serif">twowheeler</text></g><g class="relationship" transform="translate(140.1363084526007 98.37217440725081) rotate(503.78218326401833)"><path class="outline" fill="#A5ABB6" stroke="none" d="M 24.018736134675446,-6.953439040707552 L 24.277555179777966,-5.987513214418485 A 119.71414494030417 119.71414494030417 0 0 1 42.53615281653996,-9.388376305960449 L 42.429852069470364,-10.382710329904342 A 120.71414494030417 120.71414494030417 0 0 0 24.018736134675446,-6.953439040707552 Z M 64.48805882673686,-10.713577225815243 L 64.4116286538453,-9.716502289478072 A 119.71414494030417 119.71414494030417 0 0 1 82.76401310789203,-6.864793629841354 L 82.07481742605059,-3.945031771036582 L 89.69165672541007,-5.743297348678761 L 83.68294068368063,-10.757809441581049 L 82.99374500183919,-7.8380475827762774 A 120.71414494030417 120.71414494030417 0 0 0 64.48805882673686,-10.713577225815243"/><text text-anchor="middle" pointer-events="none" font-size="8px" fill="#000000" x="53.45888031894557" y="-7.553152482333317" transform="rotate(180 53.45888031894557 -10.553152482333317)" font-family="sans-serif">trek</text></g><g class="relationship" transform="translate(140.1363084526007 98.37217440725081) rotate(325.7170484110338)"><path class="outline" fill="#A5ABB6" stroke="none" d="M 25 0.5 L 40.146761441186435 0.5 L 40.146761441186435 -0.5 L 25 -0.5 Z M 62.146761441186435 0.5 L 77.29352288237287 0.5 L 77.29352288237287 3.5 L 84.29352288237287 0 L 77.29352288237287 -3.5 L 77.29352288237287 -0.5 L 62.146761441186435 -0.5 Z"/><text text-anchor="middle" pointer-events="none" font-size="8px" fill="#000000" x="51.146761441186435" y="3" font-family="sans-serif">trek</text></g><g class="relationship" transform="translate(140.1363084526007 98.37217440725081) rotate(204.26675881952542)"><path class="outline" fill="#A5ABB6" stroke="none" d="M 25 0.5 L 66.57731440942877 0.5 L 66.57731440942877 -0.5 L 25 -0.5 Z M 88.57731440942877 0.5 L 130.15462881885753 0.5 L 130.15462881885753 3.5 L 137.15462881885753 0 L 130.15462881885753 -3.5 L 130.15462881885753 -0.5 L 88.57731440942877 -0.5 Z"/><text text-anchor="middle" pointer-events="none" font-size="8px" fill="#000000" x="77.57731440942877" y="3" transform="rotate(180 77.57731440942877 0)" font-family="sans-serif">trek</text></g><g class="relationship" transform="translate(140.1363084526007 98.37217440725081) rotate(503.78218326401833)"><path class="outline" fill="#A5ABB6" stroke="none" d="M 24.018736134675446,6.953439040707552 L 24.277555179777966,5.987513214418485 A 119.71414494030417 119.71414494030417 0 0 0 27.336202808653432,6.764016252402499 L 27.10293335612747,7.736428388545519 A 120.71414494030417 120.71414494030417 0 0 1 24.018736134675446,6.953439040707552 Z M 79.88745134869734,8.528181309013576 L 79.68345209490333,7.549210265288835 A 119.71414494030417 119.71414494030417 0 0 0 82.76401310789203,6.864793629841354 L 82.07481742605059,3.945031771036582 L 89.69165672541007,5.743297348678761 L 83.68294068368063,10.757809441581049 L 82.99374500183919,7.8380475827762774 A 120.71414494030417 120.71414494030417 0 0 1 79.88745134869734,8.528181309013576"/><text text-anchor="middle" pointer-events="none" font-size="8px" fill="#000000" x="53.458880318945624" y="13.553152482333317" transform="rotate(180 53.458880318945624 10.553152482333317)" font-family="sans-serif">twowheeler</text></g><g class="relationship" transform="translate(-7.690640709199828 31.728969585634555) rotate(535.1358706367967)"><path class="outline" fill="#A5ABB6" stroke="none" d="M 25 0.5 L 86.7733973288843 0.5 L 86.7733973288843 -0.5 L 25 -0.5 Z M 108.7733973288843 0.5 L 170.5467946577686 0.5 L 170.5467946577686 3.5 L 177.5467946577686 0 L 170.5467946577686 -3.5 L 170.5467946577686 -0.5 L 108.7733973288843 -0.5 Z"/><text text-anchor="middle" pointer-events="none" font-size="8px" fill="#000000" x="97.7733973288843" y="3" transform="rotate(180 97.7733973288843 0)" font-family="sans-serif">trek</text></g><g class="relationship" transform="translate(-146.00753668581947 160.58609952439326) rotate(240.37831492612293)"><path class="outline" fill="#A5ABB6" stroke="none" d="M 25 0.5 L 49.7364745786394 0.5 L 49.7364745786394 -0.5 L 25 -0.5 Z M 71.7364745786394 0.5 L 96.4729491572788 0.5 L 96.4729491572788 3.5 L 103.4729491572788 0 L 96.4729491572788 -3.5 L 96.4729491572788 -0.5 L 71.7364745786394 -0.5 Z"/><text text-anchor="middle" pointer-events="none" font-size="8px" fill="#000000" x="60.7364745786394" y="3" transform="rotate(180 60.7364745786394 0)" font-family="sans-serif">trek</text></g><g class="relationship" transform="translate(-74.04409154358093 114.58748471046408) rotate(205.8678900266989)"><path class="outline" fill="#A5ABB6" stroke="none" d="M 24.018736134675446,6.953439040707552 L 24.277555179777966,5.987513214418485 A 191.91605289966597 191.91605289966597 0 0 0 45.4139525694539,10.393658146035278 L 45.26526708050953,11.382542681953083 A 192.91605289966597 192.91605289966597 0 0 1 24.018736134675446,6.953439040707552 Z M 98.23165482884625,11.992554722554445 L 98.10578365466066,11.000508127121975 A 191.91605289966597 191.91605289966597 0 0 0 119.33805207896697,7.082321642162883 L 118.62853924777745,4.1674302990117456 L 126.25771735151788,5.912606926579217 L 120.28406918721966,10.968843433031068 L 119.57455635603014,8.05395208987993 A 192.91605289966597 192.91605289966597 0 0 1 98.23165482884625,11.992554722554445"/><text text-anchor="middle" pointer-events="none" font-size="8px" fill="#000000" x="71.7331827142788" y="16.014134328814492" transform="rotate(180 71.7331827142788 13.014134328814492)" font-family="sans-serif">twowheeler</text></g><g class="relationship" transform="translate(-74.04409154358093 114.58748471046408) rotate(205.8678900266989)"><path class="outline" fill="#A5ABB6" stroke="none" d="M 24.018736134675446,-6.953439040707552 L 24.277555179777966,-5.987513214418485 A 191.91605289966597 191.91605289966597 0 0 1 60.77783750429078,-12.074387657484522 L 60.70920725149109,-13.072029821990725 A 192.91605289966597 192.91605289966597 0 0 0 24.018736134675446,-6.953439040707552 Z M 82.7529007301042,-13.325906271054464 L 82.70726525360206,-12.326948112128662 A 191.91605289966597 191.91605289966597 0 0 1 119.33805207896697,-7.082321642162883 L 118.62853924777745,-4.1674302990117456 L 126.25771735151788,-5.912606926579217 L 120.28406918721966,-10.968843433031068 L 119.57455635603014,-8.05395208987993 A 192.91605289966597 192.91605289966597 0 0 0 82.7529007301042,-13.325906271054464"/><text text-anchor="middle" pointer-events="none" font-size="8px" fill="#000000" x="71.73318271427878" y="-10.014134328814492" transform="rotate(180 71.73318271427878 -13.014134328814492)" font-family="sans-serif">trek</text></g><g class="relationship" transform="translate(48.145213664388265 165.74341659591724) rotate(506.5731791845416)"><path class="outline" fill="#A5ABB6" stroke="none" d="M 24.018736134675446,-6.953439040707552 L 24.277555179777966,-5.987513214418485 A 105.07567407104992 105.07567407104992 0 0 1 38.87770515965374,-8.810240224713226 L 38.757835020746235,-9.803029804532784 A 106.07567407104992 106.07567407104992 0 0 0 24.018736134675446,-6.953439040707552 Z M 60.819241645196925,-10.155345318594073 L 60.73113378332667,-9.1592343786498 A 105.07567407104992 105.07567407104992 0 0 1 75.413972204715,-6.804149857678858 L 74.73044107507859,-3.883056707021392 L 82.34377807785515,-5.696092746970133 L 76.32534704423021,-10.698940725222148 L 75.6418159145938,-7.777847574564682 A 106.07567407104992 106.07567407104992 0 0 0 60.819241645196925,-10.155345318594073"/><text text-anchor="middle" pointer-events="none" font-size="8px" fill="#000000" x="49.78733689014978" y="-7.0544198961325435" transform="rotate(180 49.78733689014978 -10.054419896132543)" font-family="sans-serif">trek</text></g><g class="relationship" transform="translate(48.145213664388265 165.74341659591724) rotate(202.717173498391)"><path class="outline" fill="#A5ABB6" stroke="none" d="M 24.018736134675446,-6.953439040707552 L 24.277555179777966,-5.987513214418485 A 156.28383519185016 156.28383519185016 0 0 1 36.43458335806015,-8.730541542402221 L 36.253552448649074,-9.714018949279364 A 157.28383519185016 157.28383519185016 0 0 0 24.018736134675446,-6.953439040707552 Z M 89.16529581454114,-10.402548181200899 L 89.00991743369457,-9.414693151975712 A 156.28383519185016 156.28383519185016 0 0 1 101.23420594503146,-6.988933698265358 L 100.5334152766084,-4.071933108781161 L 108.1573390985651,-5.8399222368588966 L 102.1685935029289,-10.878267817577619 L 101.46780283450583,-7.961267228093423 A 157.28383519185016 157.28383519185016 0 0 0 89.16529581454114,-10.402548181200899"/><text text-anchor="middle" pointer-events="none" font-size="8px" fill="#000000" x="62.68676627287639" y="-8.799483139874667" transform="rotate(180 62.68676627287639 -11.799483139874667)" font-family="sans-serif">twowheeler</text></g><g class="relationship" transform="translate(48.145213664388265 165.74341659591724) rotate(202.717173498391)"><path class="outline" fill="#A5ABB6" stroke="none" d="M 24.018736134675446,6.953439040707552 L 24.277555179777966,5.987513214418485 A 156.28383519185016 156.28383519185016 0 0 0 51.743276176241416,10.772509712376575 L 51.660199689303965,11.76905288621208 A 157.28383519185016 157.28383519185016 0 0 1 24.018736134675446,6.953439040707552 Z M 73.7103910046177,12.055987323149225 L 73.6532738646105,11.057619839545424 A 156.28383519185016 156.28383519185016 0 0 0 101.23420594503146,6.988933698265358 L 100.5334152766084,4.071933108781161 L 108.1573390985651,5.8399222368588966 L 102.1685935029289,10.878267817577619 L 101.46780283450583,7.961267228093423 A 157.28383519185016 157.28383519185016 0 0 1 73.7103910046177,12.055987323149225"/><text text-anchor="middle" pointer-events="none" font-size="8px" fill="#000000" x="62.68676627287644" y="14.799483139874667" transform="rotate(180 62.68676627287644 11.799483139874667)" font-family="sans-serif">trek</text></g><g class="relationship" transform="translate(48.145213664388265 165.74341659591724) rotate(506.5731791845416)"><path class="outline" fill="#A5ABB6" stroke="none" d="M 24.018736134675446,6.953439040707552 L 24.277555179777966,5.987513214418485 A 105.07567407104992 105.07567407104992 0 0 0 24.714038621445948,6.1034638130958285 L 24.45937356769801,7.070493135505217 A 106.07567407104992 106.07567407104992 0 0 1 24.018736134675446,6.953439040707552 Z M 75.19766547892829,7.880771813632904 L 74.97400887829536,6.906103806056308 A 105.07567407104992 105.07567407104992 0 0 0 75.413972204715,6.804149857678858 L 74.73044107507859,3.883056707021392 L 82.34377807785515,5.696092746970133 L 76.32534704423021,10.698940725222148 L 75.6418159145938,7.777847574564682 A 106.07567407104992 106.07567407104992 0 0 1 75.19766547892829,7.880771813632904"/><text text-anchor="middle" pointer-events="none" font-size="8px" fill="#000000" x="49.78733689014977" y="13.054419896132543" transform="rotate(180 49.78733689014977 10.054419896132543)" font-family="sans-serif">twowhee…</text></g><g class="relationship" transform="translate(-40.89404863288273 224.5138132324788) rotate(253.21847472984302)"><path class="outline" fill="#A5ABB6" stroke="none" d="M 21.40063509461097,12.933012701892217 L 21.90063509461097,12.06698729810778 A 67.53964563044548 67.53964563044548 0 0 0 42.87406734760971,19.892272157659292 L 42.68460247193888,20.87415965675838 A 68.53964563044548 68.53964563044548 0 0 1 21.40063509461097,12.933012701892217 Z M 64.74061414203163,21.512786220059994 L 64.60827969313321,20.52158109818322 A 67.53964563044548 67.53964563044548 0 0 0 85.99935298465476,13.922950403788636 L 84.6521933367894,11.24243536313633 L 92.47841468748771,11.226330398878144 L 87.79556584847526,17.49697045799171 L 86.4484062006099,14.816455417339405 A 68.53964563044548 68.53964563044548 0 0 1 64.74061414203163,21.512786220059994"/><text text-anchor="middle" pointer-events="none" font-size="8px" fill="#000000" x="53.70121149402875" y="24.58708049251868" transform="rotate(180 53.70121149402875 21.58708049251868)" font-family="sans-serif">trek</text></g><g class="relationship" transform="translate(-40.89404863288273 224.5138132324788) rotate(211.30704794424923)"><path class="outline" fill="#A5ABB6" stroke="none" d="M 25 0.5 L 47.01340900689423 0.5 L 47.01340900689423 -0.5 L 25 -0.5 Z M 69.01340900689422 0.5 L 91.02681801378846 0.5 L 91.02681801378846 3.5 L 98.02681801378846 0 L 91.02681801378846 -3.5 L 91.02681801378846 -0.5 L 69.01340900689422 -0.5 Z"/><text text-anchor="middle" pointer-events="none" font-size="8px" fill="#000000" x="58.01340900689423" y="3" transform="rotate(180 58.01340900689423 0)" font-family="sans-serif">trek</text></g><g class="relationship" transform="translate(-40.89404863288273 224.5138132324788) rotate(253.21847472984302)"><path class="outline" fill="#A5ABB6" stroke="none" d="M 25 0.5 L 27.40802001312848 0.5 L 27.40802001312848 -0.5 L 25 -0.5 Z M 80.40802001312848 0.5 L 82.81604002625696 0.5 L 82.81604002625696 3.5 L 89.81604002625696 0 L 82.81604002625696 -3.5 L 82.81604002625696 -0.5 L 80.40802001312848 -0.5 Z"/><text text-anchor="middle" pointer-events="none" font-size="8px" fill="#000000" x="53.90802001312848" y="3" transform="rotate(180 53.90802001312848 0)" font-family="sans-serif">twowheeler</text></g><g class="relationship" transform="translate(-40.89404863288273 224.5138132324788) rotate(253.21847472984302)"><path class="outline" fill="#A5ABB6" stroke="none" d="M 21.40063509461097,-12.933012701892217 L 21.90063509461097,-12.06698729810778 A 67.53964563044548 67.53964563044548 0 0 1 41.900812548124385,-19.697043964587806 L 41.696937546513446,-20.676040891916045 A 68.53964563044548 68.53964563044548 0 0 0 21.40063509461097,-12.933012701892217 Z M 65.73808773381613,-21.37214666804573 L 65.59120004959514,-20.382993490714625 A 67.53964563044548 67.53964563044548 0 0 1 85.99935298465476,-13.922950403788636 L 84.6521933367894,-11.24243536313633 L 92.47841468748771,-11.226330398878144 L 87.79556584847526,-17.49697045799171 L 86.4484062006099,-14.816455417339405 A 68.53964563044548 68.53964563044548 0 0 0 65.73808773381613,-21.37214666804573"/><text text-anchor="middle" pointer-events="none" font-size="8px" fill="#000000" x="53.70121149402874" y="-18.58708049251868" transform="rotate(180 53.70121149402874 -21.58708049251868)" font-family="sans-serif">road</text></g></g><g class="layer nodes"><g class="node" transform="translate(283.95777737875005,142.14391888169695)"><circle class="outline" cx="0" cy="0" r="25" fill="#F16667" stroke="#eb2728" stroke-width="2px"/><text text-anchor="middle" pointer-events="none" font-family="sans-serif" dy="1.5625" font-size="25" fill="#FFFFFF"/><text text-anchor="middle" pointer-events="none" y="5" font-size="10px" fill="#FFFFFF" font-family="sans-serif"> Darjeel…</text></g><g class="node" transform="translate(117.03822916687244,-15.417399654510456)"><circle class="outline" cx="0" cy="0" r="25" fill="#D9C8AE" stroke="#c0a378" stroke-width="2px"/><text text-anchor="middle" pointer-events="none" font-family="sans-serif" dy="1.5625" font-size="25" fill="#604A0E"/><text text-anchor="middle" pointer-events="none" y="5" font-size="10px" fill="#604A0E" font-family="sans-serif"> Gairibus</text></g><g class="node" transform="translate(230.44182339301597,36.80929504487695)"><circle class="outline" cx="0" cy="0" r="25" fill="#D9C8AE" stroke="#c0a378" stroke-width="2px"/><text text-anchor="middle" pointer-events="none" font-family="sans-serif" dy="1.5625" font-size="25" fill="#604A0E"/><text text-anchor="middle" pointer-events="none" y="5" font-size="10px" fill="#604A0E" font-family="sans-serif"> Tumbling</text></g><g class="node" transform="translate(140.1363084526007,98.37217440725081)"><circle class="outline" cx="0" cy="0" r="25" fill="#F16667" stroke="#eb2728" stroke-width="2px"/><text text-anchor="middle" pointer-events="none" font-family="sans-serif" dy="1.5625" font-size="25" fill="#FFFFFF"/><text text-anchor="middle" pointer-events="none" y="5" font-size="10px" fill="#FFFFFF" font-family="sans-serif"> Rimbik</text></g><g class="node" transform="translate(-209.50797870394155,48.90354704339084)"><circle class="outline" cx="0" cy="0" r="25" fill="#8DCC93" stroke="#5db665" stroke-width="2px"/><text text-anchor="middle" pointer-events="none" font-family="sans-serif" dy="1.5625" font-size="25" fill="#604A0E"/><text text-anchor="middle" pointer-events="none" y="5" font-size="10px" fill="#604A0E" font-family="sans-serif"> Sandak…</text></g><g class="node" transform="translate(-7.690640709199828,31.728969585634555)"><circle class="outline" cx="0" cy="0" r="25" fill="#D9C8AE" stroke="#c0a378" stroke-width="2px"/><text text-anchor="middle" pointer-events="none" font-family="sans-serif" dy="1.5625" font-size="25" fill="#604A0E"/><text text-anchor="middle" pointer-events="none" y="5" font-size="10px" fill="#604A0E" font-family="sans-serif"> BhikeB…</text></g><g class="node" transform="translate(-146.00753668581947,160.58609952439326)"><circle class="outline" cx="0" cy="0" r="25" fill="#8DCC93" stroke="#5db665" stroke-width="2px"/><text text-anchor="middle" pointer-events="none" font-family="sans-serif" dy="1.5625" font-size="25" fill="#604A0E"/><text text-anchor="middle" pointer-events="none" y="5" font-size="10px" fill="#604A0E" font-family="sans-serif"> Sabargr…</text></g><g class="node" transform="translate(-74.04409154358093,114.58748471046408)"><circle class="outline" cx="0" cy="0" r="25" fill="#D9C8AE" stroke="#c0a378" stroke-width="2px"/><text text-anchor="middle" pointer-events="none" font-family="sans-serif" dy="1.5625" font-size="25" fill="#604A0E"/><text text-anchor="middle" pointer-events="none" y="5" font-size="10px" fill="#604A0E" font-family="sans-serif"> Gurdum</text></g><g class="node" transform="translate(48.145213664388265,165.74341659591724)"><circle class="outline" cx="0" cy="0" r="25" fill="#D9C8AE" stroke="#c0a378" stroke-width="2px"/><text text-anchor="middle" pointer-events="none" font-family="sans-serif" dy="1.5625" font-size="25" fill="#604A0E"/><text text-anchor="middle" pointer-events="none" y="5" font-size="10px" fill="#604A0E" font-family="sans-serif"> Sirikhola</text></g><g class="node" transform="translate(-40.89404863288273,224.5138132324788)"><circle class="outline" cx="0" cy="0" r="25" fill="#D9C8AE" stroke="#c0a378" stroke-width="2px"/><text text-anchor="middle" pointer-events="none" font-family="sans-serif" dy="1.5625" font-size="25" fill="#604A0E"/><text text-anchor="middle" pointer-events="none" y="5" font-size="10px" fill="#604A0E" font-family="sans-serif"> Ramm…</text></g></g></svg>