<svg xmlns="http://www.w3.org/2000/svg" width="286.4432678222656" height="265.8691711425781" viewBox="-54.00434875488281 -32.76161193847656 286.4432678222656 265.8691711425781"><title>Neo4j Graph Visualization</title><desc>Created using Neo4j (http://www.neo4j.com/)</desc><g class="layer relationships"><g class="relationship" transform="translate(156.61366538200852 193.83472728478392) rotate(233.6943286673889)"><path class="outline" fill="#A5ABB6" stroke="none" d="M 25 0.5 L 31.453971382033266 0.5 L 31.453971382033266 -0.5 L 25 -0.5 Z M 76.45397138203327 0.5 L 82.90794276406653 0.5 L 82.90794276406653 3.5 L 89.90794276406653 0 L 82.90794276406653 -3.5 L 82.90794276406653 -0.5 L 76.45397138203327 -0.5 Z"/><text text-anchor="middle" pointer-events="none" font-size="8px" fill="#000000" x="53.95397138203327" y="3" transform="rotate(180 53.95397138203327 0)" font-family="sans-serif">ACTED_IN</text></g><g class="relationship" transform="translate(203.43892206401827 101.13538430548974) rotate(539.9508577237394)"><path class="outline" fill="#A5ABB6" stroke="none" d="M 25 0.5 L 35.93074083793289 0.5 L 35.93074083793289 -0.5 L 25 -0.5 Z M 71.93074083793289 0.5 L 82.86148167586578 0.5 L 82.86148167586578 3.5 L 89.86148167586578 0 L 82.86148167586578 -3.5 L 82.86148167586578 -0.5 L 71.93074083793289 -0.5 Z"/><text text-anchor="middle" pointer-events="none" font-size="8px" fill="#000000" x="53.93074083793289" y="3" transform="rotate(180 53.93074083793289 0)" font-family="sans-serif">WROTE</text></g><g class="relationship" transform="translate(150.76890905411668 4.636812400190036) rotate(482.7743660609749)"><path class="outline" fill="#A5ABB6" stroke="none" d="M 25 0.5 L 31.442951964569993 0.5 L 31.442951964569993 -0.5 L 25 -0.5 Z M 76.44295196457 0.5 L 82.88590392913999 0.5 L 82.88590392913999 3.5 L 89.88590392913999 0 L 82.88590392913999 -3.5 L 82.88590392913999 -0.5 L 76.44295196457 -0.5 Z"/><text text-anchor="middle" pointer-events="none" font-size="8px" fill="#000000" x="53.94295196456999" y="3" transform="rotate(180 53.94295196456999 0)" font-family="sans-serif">ACTED_IN</text></g><g class="relationship" transform="translate(41.62150216880612 -3.761612964335034) rotate(425.9049030425162)"><path class="outline" fill="#A5ABB6" stroke="none" d="M 25 0.5 L 30.508525279552494 0.5 L 30.508525279552494 -0.5 L 25 -0.5 Z M 77.50852527955249 0.5 L 83.01705055910499 0.5 L 83.01705055910499 3.5 L 90.01705055910499 0 L 83.01705055910499 -3.5 L 83.01705055910499 -0.5 L 77.50852527955249 -0.5 Z"/><text text-anchor="middle" pointer-events="none" font-size="8px" fill="#000000" x="54.008525279552494" y="3" font-family="sans-serif">DIRECTED</text></g><g class="relationship" transform="translate(-25.004349895995826 100.47502791350347) rotate(360.3828036603798)"><path class="outline" fill="#A5ABB6" stroke="none" d="M 25 0.5 L 35.29218381261685 0.5 L 35.29218381261685 -0.5 L 25 -0.5 Z M 71.29218381261686 0.5 L 81.5843676252337 0.5 L 81.5843676252337 3.5 L 88.5843676252337 0 L 81.5843676252337 -3.5 L 81.5843676252337 -0.5 L 71.29218381261686 -0.5 Z"/><text text-anchor="middle" pointer-events="none" font-size="8px" fill="#000000" x="53.29218381261685" y="3" font-family="sans-serif">WROTE</text></g><g class="relationship" transform="translate(39.37498514043817 204.10755677863213) rotate(295.56089579067776)"><path class="outline" fill="#A5ABB6" stroke="none" d="M 25 0.5 L 31.017267001722125 0.5 L 31.017267001722125 -0.5 L 25 -0.5 Z M 76.01726700172213 0.5 L 82.03453400344425 0.5 L 82.03453400344425 3.5 L 89.03453400344425 0 L 82.03453400344425 -3.5 L 82.03453400344425 -0.5 L 76.01726700172213 -0.5 Z"/><text text-anchor="middle" pointer-events="none" font-size="8px" fill="#000000" x="53.517267001722125" y="3" font-family="sans-serif">ACTED_IN</text></g></g><g class="layer nodes"><g class="node" transform="translate(88.57748263649403,101.2339003571104)"><circle class="outline" cx="0" cy="0" r="25" fill="#8DCC93" stroke="#5db665" stroke-width="2px"/><text text-anchor="middle" pointer-events="none" font-family="sans-serif" dy="1.5625" font-size="25" fill="#604A0E"/><text text-anchor="middle" pointer-events="none" font-family="sans-serif" dy="1.5625" font-size="25" fill="#604A0E"/><text text-anchor="middle" pointer-events="none" y="0" font-size="10px" fill="#604A0E" font-family="sans-serif"> Captain</text><text text-anchor="middle" pointer-events="none" y="10" font-size="10px" fill="#604A0E" font-family="sans-serif"> Ameri…</text></g><g class="node" transform="translate(156.61366538200852,193.83472728478392)"><circle class="outline" cx="0" cy="0" r="25" fill="#D9C8AE" stroke="#c0a378" stroke-width="2px"/><text text-anchor="middle" pointer-events="none" font-family="sans-serif" dy="1.5625" font-size="25" fill="#604A0E"/><text text-anchor="middle" pointer-events="none" font-family="sans-serif" dy="1.5625" font-size="25" fill="#604A0E"/><text text-anchor="middle" pointer-events="none" y="0" font-size="10px" fill="#604A0E" font-family="sans-serif"> Chris</text><text text-anchor="middle" pointer-events="none" y="10" font-size="10px" fill="#604A0E" font-family="sans-serif"> Evans</text></g><g class="node" transform="translate(203.43892206401827,101.13538430548974)"><circle class="outline" cx="0" cy="0" r="25" fill="#D9C8AE" stroke="#c0a378" stroke-width="2px"/><text text-anchor="middle" pointer-events="none" font-family="sans-serif" dy="1.5625" font-size="25" fill="#604A0E"/><text text-anchor="middle" pointer-events="none" y="5" font-size="10px" fill="#604A0E" font-family="sans-serif"> Christo…</text></g><g class="node" transform="translate(150.76890905411668,4.636812400190036)"><circle class="outline" cx="0" cy="0" r="25" fill="#D9C8AE" stroke="#c0a378" stroke-width="2px"/><text text-anchor="middle" pointer-events="none" font-family="sans-serif" dy="1.5625" font-size="25" fill="#604A0E"/><text text-anchor="middle" pointer-events="none" font-family="sans-serif" dy="1.5625" font-size="25" fill="#604A0E"/><text text-anchor="middle" pointer-events="none" y="0" font-size="10px" fill="#604A0E" font-family="sans-serif"> Hugo</text><text text-anchor="middle" pointer-events="none" y="10" font-size="10px" fill="#604A0E" font-family="sans-serif"> Weaving</text></g><g class="node" transform="translate(41.62150216880612,-3.761612964335034)"><circle class="outline" cx="0" cy="0" r="25" fill="#D9C8AE" stroke="#c0a378" stroke-width="2px"/><text text-anchor="middle" pointer-events="none" font-family="sans-serif" dy="1.5625" font-size="25" fill="#604A0E"/><text text-anchor="middle" pointer-events="none" font-family="sans-serif" dy="1.5625" font-size="25" fill="#604A0E"/><text text-anchor="middle" pointer-events="none" y="0" font-size="10px" fill="#604A0E" font-family="sans-serif"> Joe</text><text text-anchor="middle" pointer-events="none" y="10" font-size="10px" fill="#604A0E" font-family="sans-serif"> Johnston</text></g><g class="node" transform="translate(-25.004349895995826,100.47502791350347)"><circle class="outline" cx="0" cy="0" r="25" fill="#D9C8AE" stroke="#c0a378" stroke-width="2px"/><text text-anchor="middle" pointer-events="none" font-family="sans-serif" dy="1.5625" font-size="25" fill="#604A0E"/><text text-anchor="middle" pointer-events="none" font-family="sans-serif" dy="1.5625" font-size="25" fill="#604A0E"/><text text-anchor="middle" pointer-events="none" y="0" font-size="10px" fill="#604A0E" font-family="sans-serif"> Stephen</text><text text-anchor="middle" pointer-events="none" y="10" font-size="10px" fill="#604A0E" font-family="sans-serif"> McFeely</text></g><g class="node" transform="translate(39.37498514043817,204.10755677863213)"><circle class="outline" cx="0" cy="0" r="25" fill="#D9C8AE" stroke="#c0a378" stroke-width="2px"/><text text-anchor="middle" pointer-events="none" font-family="sans-serif" dy="1.5625" font-size="25" fill="#604A0E"/><text text-anchor="middle" pointer-events="none" font-family="sans-serif" dy="1.5625" font-size="25" fill="#604A0E"/><text text-anchor="middle" pointer-events="none" y="0" font-size="10px" fill="#604A0E" font-family="sans-serif"> Samuel</text><text text-anchor="middle" pointer-events="none" y="10" font-size="10px" fill="#604A0E" font-family="sans-serif"> L. Jack…</text></g></g></svg>